<svg viewBox="0 0 100 100" xmlns="http://www.w3.org/2000/svg"><g fill="none" fill-rule="evenodd"><circle fill="#F00075" cx="50" cy="50" r="50"/><g transform="translate(21 21)" fill="#FFF" fill-rule="nonzero"><path d="M28.5 14C20.492 14 14 20.492 14 28.5S20.492 43 28.5 43 43 36.508 43 28.5A14.5 14.5 0 0 0 28.5 14zm0 23.918a9.418 9.418 0 1 1 0-18.836 9.418 9.418 0 0 1 0 18.836z"/><circle cx="44" cy="13" r="3"/><path d="M55.496 9.818a14.566 14.566 0 0 0-8.33-8.316A20.953 20.953 0 0 0 40.243.173C37.197.04 36.233 0 28.5 0c-7.732 0-8.716 0-11.743.173a20.953 20.953 0 0 0-6.923 1.329 14.566 14.566 0 0 0-8.33 8.316 20.855 20.855 0 0 0-1.33 6.91C.039 19.77 0 20.733 0 28.452c0 7.72 0 8.701.174 11.723a20.855 20.855 0 0 0 1.33 6.911 14.566 14.566 0 0 0 8.33 8.316c2.21.864 4.551 1.345 6.923 1.425 3.046.134 4.01.173 11.743.173 7.732 0 8.716 0 11.743-.173a20.953 20.953 0 0 0 6.923-1.329 14.566 14.566 0 0 0 8.33-8.316 20.855 20.855 0 0 0 1.33-6.91c.135-3.042.174-4.005.174-11.724 0-7.72 0-8.701-.174-11.723a20.855 20.855 0 0 0-1.33-7.007zm-3.857 30.126a15.723 15.723 0 0 1-.983 5.333 9.44 9.44 0 0 1-5.419 5.409 15.797 15.797 0 0 1-5.283.982c-3.008.134-3.857.173-11.57.173s-8.503 0-11.57-.173a15.797 15.797 0 0 1-5.283-.982 9.421 9.421 0 0 1-5.438-5.41 15.723 15.723 0 0 1-.983-5.274c-.135-3.003-.174-3.85-.174-11.55 0-7.7 0-8.49.174-11.55.016-1.821.35-3.625.983-5.333a9.421 9.421 0 0 1 5.438-5.409 15.797 15.797 0 0 1 5.284-.982c3.008-.134 3.856-.173 11.57-.173 7.712 0 8.503 0 11.569.173 1.804.023 3.592.356 5.283.982a9.44 9.44 0 0 1 5.419 5.41c.628 1.688.96 3.473.983 5.274.135 3.003.174 3.85.174 11.55 0 7.7 0 8.528-.135 11.55h-.039z"/></g></g></svg>
