<svg viewBox="0 0 100 100" xmlns="http://www.w3.org/2000/svg"><g fill="none" fill-rule="evenodd"><circle fill="#0A66C1" cx="50" cy="50" r="50"/><path d="M73.521 22H26.785C24.231 22 22 23.837 22 26.361v46.84C22 75.74 24.231 78 26.785 78h46.722C76.075 78 78 75.724 78 73.201v-46.84C78.015 23.837 76.075 22 73.521 22zM40 68h-8V43h8v25zm-3.523-27h-.06C33.735 41 32 39.001 32 36.5c0-2.548 1.781-4.5 4.522-4.5 2.74 0 4.418 1.937 4.478 4.5C40.999 39 39.263 41 36.477 41zm31.522 27h-8.184V54.109c0-3.328-1.191-5.602-4.152-5.602-2.262 0-3.6 1.528-4.196 3.016-.223.535-.283 1.263-.283 2.007V68H43V42.595h8.184v3.535c1.19-1.693 3.051-4.13 7.38-4.13C63.936 42 68 45.536 68 53.158L67.999 68z" fill="#FFF" fill-rule="nonzero"/></g></svg>
