<svg viewBox="0 0 100 100" xmlns="http://www.w3.org/2000/svg"><g fill="none" fill-rule="evenodd"><circle fill="#1D9BF0" cx="50" cy="50" r="50"/><path d="M75.062 40.452c.036.499.036.998.036 1.501C75.098 57.3 63.128 75 41.24 75v-.01A34.292 34.292 0 0 1 23 69.785c.94.11 1.885.166 2.832.168a24.27 24.27 0 0 0 14.779-4.982c-5.092-.094-9.557-3.334-11.117-8.065 1.784.336 3.622.267 5.372-.2-5.551-1.095-9.545-5.856-9.545-11.385v-.147c1.654.9 3.506 1.398 5.4 1.454-5.228-3.411-6.84-10.2-3.682-15.508 6.041 7.256 14.955 11.667 24.524 12.134-.96-4.034.351-8.261 3.442-11.097 4.793-4.397 12.33-4.172 16.836.504a24.236 24.236 0 0 0 7.557-2.82 11.712 11.712 0 0 1-5.231 6.424A24.12 24.12 0 0 0 81 34.435a23.861 23.861 0 0 1-5.938 6.017z" fill="#FFF" fill-rule="nonzero"/></g></svg>
