<svg viewBox="-80 0 1462 934" fill="none" xmlns="http://www.w3.org/2000/svg">
  <ellipse cx="646" cy="481" rx="631" ry="428" fill="#FDAA07" fill-opacity="0.32"/>
  <rect x="154.5" y="189.5" width="980" height="584" fill="white" stroke="#3A3838" stroke-width="35"/>
  <line y1="-17.5" x2="588.277" y2="-17.5" transform="matrix(0.826204 0.563372 -0.537056 0.843547 160.305 220.234)" stroke="#3A3838" stroke-width="35"/>
  <line x1="1126.65" y1="213.424" x2="636.908" y2="535.086" stroke="#3A3838" stroke-width="35"/>
  <circle cx="35" cy="240" r="20" fill="#FE9100"/>
  <circle cx="89.5" cy="144.5" r="12.5" fill="#FDB004"/>
  <circle cx="64.5" cy="347.5" r="12.5" fill="#FDB004"/>
  <circle cx="271.5" cy="110.5" r="12.5" fill="#FDB004"/>
  <circle cx="1005.5" cy="86.5" r="12.5" fill="#FDB004"/>
  <circle cx="816.5" cy="97.5" r="12.5" fill="#E1701D"/>
  <circle cx="1271.5" cy="381.5" r="7.5" fill="#FDB004"/>
  <circle cx="803.5" cy="845.5" r="7.5" fill="#FDB004"/>
  <circle cx="328.5" cy="901.5" r="7.5" fill="#FDB004"/>
  <circle cx="114.5" cy="823.5" r="7.5" fill="#FDB004"/>
  <circle cx="7.5" cy="199.5" r="7.5" fill="#FDB004"/>
  <circle cx="1284.5" cy="718.5" r="7.5" fill="#E1701D"/>
  <circle cx="69.5" cy="396.5" r="7.5" fill="#E1701D"/>
  <circle cx="176.5" cy="53.5" r="7.5" fill="#E1701D"/>
  <circle cx="1251.5" cy="611.5" r="12.5" fill="#FDB004"/>
  <circle cx="1301.5" cy="658.5" r="12.5" fill="#FDB004"/>
  <circle cx="980.5" cy="828.5" r="12.5" fill="#FDB004"/>
  <circle cx="733.5" cy="828.5" r="12.5" fill="#E1701D"/>
  <circle cx="441.5" cy="921.5" r="12.5" fill="#FDB004"/>
  <circle cx="678.5" cy="909.5" r="12.5" fill="#FDB004"/>
  <circle cx="594.5" cy="853.5" r="12.5" fill="#FDB004"/>
  <circle cx="622.5" cy="838.5" r="7.5" fill="#FDB004"/>
  <circle cx="543.5" cy="115.5" r="7.5" fill="#E1701D"/>
  <circle cx="72.5" cy="591.5" r="7.5" fill="#E1701D"/>
  <circle cx="154.5" cy="823.5" r="7.5" fill="#E1701D"/>
  <circle cx="102.5" cy="658.5" r="12.5" fill="#FDB004"/>
  <circle cx="27.5" cy="726.5" r="12.5" fill="#FDB004"/>
  <circle cx="1367" cy="484" r="15" fill="#E1701D"/>
  <circle cx="1251.5" cy="227.5" r="12.5" fill="#FDB004"/>
  <circle cx="569.5" cy="99.5" r="12.5" fill="#FDB004"/>
  <circle cx="639.5" cy="12.5" r="12.5" fill="#FDB004"/>
  <circle cx="741.5" cy="119.5" r="7.5" fill="#FDB701"/>
</svg>
