<?xml version="1.0" encoding="UTF-8"?>
<svg width="100px" height="100px" viewBox="0 0 100 100" version="1.1" xmlns="http://www.w3.org/2000/svg" xmlns:xlink="http://www.w3.org/1999/xlink">
    <title>Artboard Copy</title>
    <g id="Artboard-Copy" stroke="none" stroke-width="1" fill="none" fill-rule="evenodd">
        <circle id="Oval" fill="#F00075" cx="50" cy="50" r="50"></circle>
        <g id="ig-logo" transform="translate(21.000000, 21.000000)" fill="#FFFFFF" fill-rule="nonzero">
            <path d="M28.5,14 C20.4918711,14 14,20.4918711 14,28.5 C14,36.5081289 20.4918711,43 28.5,43 C36.5081289,43 43,36.5081289 43,28.5 C43,24.6543609 41.4723258,20.9662292 38.7530483,18.2469517 C36.0337708,15.5276742 32.3456391,14 28.5,14 Z M28.5,37.9183136 C23.298409,37.9183136 19.0816864,33.701591 19.0816864,28.5 C19.0816864,23.298409 23.298409,19.0816864 28.5,19.0816864 C33.701591,19.0816864 37.9183136,23.298409 37.9183136,28.5 C37.9183136,33.701591 33.701591,37.9183136 28.5,37.9183136 L28.5,37.9183136 Z" id="Shape"></path>
            <circle id="Oval" cx="44" cy="13" r="3"></circle>
            <path d="M55.4959405,9.81762918 C54.0148004,5.99908708 50.9907656,2.98015871 47.1657645,1.50151976 C44.9501163,0.671077354 42.6093887,0.221947892 40.2432341,0.17325228 C37.1965494,0.0385005066 36.2324087,0 28.5,0 C20.7675913,0 19.7841678,0 16.7567659,0.17325228 C14.3906113,0.221947892 12.0498837,0.671077354 9.83423545,1.50151976 C6.00923438,2.98015871 2.98519957,5.99908708 1.50405954,9.81762918 C0.672212464,12.029536 0.222323312,14.3663111 0.173545332,16.7284701 C0.0385656292,19.7700101 0,20.7325228 0,28.4518744 C0,36.1712259 0,37.1529889 0.173545332,40.1752786 C0.222323312,42.5374377 0.672212464,44.8742127 1.50405954,47.0861196 C2.98519957,50.9046617 6.00923438,53.92359 9.83423545,55.402229 C12.0441217,56.2655651 14.3850296,56.7472772 16.7567659,56.8267477 C19.8034506,56.9614995 20.7675913,57 28.5,57 C36.2324087,57 37.2158322,57 40.2432341,56.8267477 C42.6093887,56.7780521 44.9501163,56.3289226 47.1657645,55.4984802 C50.9907656,54.0198413 54.0148004,51.0009129 55.4959405,47.1823708 C56.3277875,44.970464 56.7776767,42.6336889 56.8264547,40.2715299 C56.9614344,37.2299899 57,36.2674772 57,28.5481256 C57,20.8287741 57,19.8470111 56.8264547,16.8247214 C56.7886298,14.4301468 56.3385654,12.0599031 55.4959405,9.81762918 L55.4959405,9.81762918 Z M51.6393775,39.9442756 C51.6228649,41.7651104 51.2901257,43.5692895 50.655954,45.2765957 C49.6961347,47.7627602 47.7278528,49.7277184 45.2374831,50.6859169 C43.5455422,51.312489 41.7584446,51.6445623 39.9539919,51.6676798 C36.9458728,51.8024316 36.097429,51.8409321 28.3843031,51.8409321 C20.6711773,51.8409321 19.8805819,51.8409321 16.8146143,51.6676798 C15.0101616,51.6445623 13.223064,51.312489 11.5311231,50.6859169 C9.03208986,49.7343309 7.05543651,47.768013 6.09336942,45.2765957 C5.4657375,43.5875119 5.13310254,41.803432 5.10994587,40.0020263 C4.97496617,36.9989868 4.93640054,36.1519757 4.93640054,28.4518744 C4.93640054,20.751773 4.93640054,19.9625127 5.10994587,16.9017224 C5.12645851,15.0808875 5.45919774,13.2767085 6.09336942,11.5694022 C7.05543651,9.07798501 9.03208986,7.11166704 11.5311231,6.16008105 C13.223064,5.53350897 15.0101616,5.2014357 16.8146143,5.17831814 C19.8227334,5.04356636 20.6711773,5.00506586 28.3843031,5.00506586 C36.097429,5.00506586 36.8880244,5.00506586 39.9539919,5.17831814 C41.7584446,5.2014357 43.5455422,5.53350897 45.2374831,6.16008105 C47.7278528,7.11827959 49.6961347,9.0832378 50.655954,11.5694022 C51.2835859,13.2584861 51.6162209,15.042566 51.6393775,16.8439716 C51.7743572,19.8470111 51.8129229,20.6940223 51.8129229,28.3941236 C51.8129229,36.0942249 51.8129229,36.9219858 51.6779432,39.9442756 L51.6393775,39.9442756 Z" id="Shape"></path>
        </g>
    </g>
</svg>