<?xml version="1.0" encoding="UTF-8"?>
<svg width="100px" height="100px" viewBox="0 0 100 100" version="1.1" xmlns="http://www.w3.org/2000/svg" xmlns:xlink="http://www.w3.org/1999/xlink">
    <title>Artboard Copy 3</title>
    <g id="Artboard-Copy-3" stroke="none" stroke-width="1" fill="none" fill-rule="evenodd">
        <circle id="Oval" fill="#0A66C1" cx="50" cy="50" r="50"></circle>
        <path d="M73.5211705,22 L26.7849926,22 C24.2312466,22 22,23.8375 22,26.36125 L22,73.20125 C22,75.73875 24.2312466,78 26.7849926,78 L73.5074205,78 C76.0749166,78 78,75.72375 78,73.20125 L78,26.36125 C78.0149136,23.8375 76.0749166,22 73.5211705,22 Z M40,68 L32,68 L32,43 L40,43 L40,68 Z M36.4765081,41 L36.4164733,41 C33.7357889,41 32,39.0013072 32,36.4993464 C32,33.951634 33.7814675,32 36.5221868,32 C39.262906,32 40.9399652,33.9372549 41,36.4993464 C40.9986949,39.0013072 39.262906,41 36.4765081,41 Z M67.9987249,68 L59.8150056,68 L59.8150056,54.1088042 C59.8150056,50.7808246 58.6240437,48.5070023 55.6632153,48.5070023 C53.4011527,48.5070023 52.0622769,50.0347664 51.4667959,51.5230634 C51.2436499,52.0577808 51.1837193,52.7860151 51.1837193,53.529527 L51.1837193,68 L43,68 L43,42.5945549 L51.1837193,42.5945549 L51.1837193,46.1300558 C52.3746812,44.4367839 54.2350811,42 58.564113,42 C63.936193,42 68,45.5355009 68,53.157771 L67.9987249,68 Z" id="Shape" fill="#FFFFFF" fill-rule="nonzero"></path>
    </g>
</svg>