<?xml version="1.0" encoding="UTF-8"?>
<svg width="100px" height="100px" viewBox="0 0 100 100" version="1.1" xmlns="http://www.w3.org/2000/svg" xmlns:xlink="http://www.w3.org/1999/xlink">
    <title>Artboard Copy 2</title>
    <g id="Artboard-Copy-2" stroke="none" stroke-width="1" fill="none" fill-rule="evenodd">
        <circle id="Oval" fill="#1D9BF0" cx="50" cy="50" r="50"></circle>
        <g id="Logo-white" transform="translate(23.000000, 29.000000)" fill="#FFFFFF" fill-rule="nonzero">
            <path d="M52.0621572,11.4515808 C52.0975015,11.9506493 52.0975015,12.4497178 52.0975015,12.953386 C52.0975015,28.3003172 40.1275645,46 18.2400163,46 L18.2400163,45.9908006 C11.7743652,46 5.44302255,44.1923141 0,40.7839292 C0.94015844,40.8943223 1.88502945,40.9495188 2.83225675,40.9518187 C8.19045298,40.9564184 13.3954906,39.2016291 17.6108877,35.9703331 C12.5189519,35.876039 8.05378834,32.6355436 6.49392647,27.9047422 C8.27763559,28.240521 10.1155393,28.1715254 11.8662604,27.7046548 C6.31484867,26.6099239 2.32094251,21.8492244 2.32094251,16.3203734 C2.32094251,16.2697766 2.32094251,16.2214797 2.32094251,16.1731827 C3.97505586,17.072426 5.8270973,17.5714945 7.7215519,17.626691 C2.49295145,14.2160063 0.88125127,7.42683481 4.0386756,2.11876987 C10.080195,9.37481185 18.994028,13.7859334 28.5629088,14.2528039 C27.6039001,10.2188586 28.9139955,5.9917254 32.0054438,3.1560044 C36.7981312,-1.24131804 44.3358927,-1.01593226 48.8411131,3.6596726 C51.5060735,3.14680498 54.0602884,2.19236522 56.397725,0.840050584 C55.5094048,3.52858088 53.6502945,5.81233672 51.1667682,7.26354512 C53.5254113,6.99216225 55.8298598,6.37580116 58,5.43516053 C56.4024375,7.77181304 54.3901686,9.80718456 52.0621572,11.4515808 Z" id="white_background"></path>
        </g>
    </g>
</svg>