<svg viewBox="0 0 2454 521" fill="none" xmlns="http://www.w3.org/2000/svg">
  <path d="M47.3022 235.221C34.3221 235.221 24.3937 231.294 17.5171 223.441C10.6405 215.588 7.20215 204.276 7.20215 189.505C7.20215 189.302 7.20215 189.098 7.20215 188.895C7.20215 179.943 8.89079 172.009 12.2681 165.091C15.6453 158.133 20.4671 152.803 26.7334 149.1C32.9997 145.357 40.1815 143.485 48.2788 143.485C48.5636 143.485 48.8281 143.485 49.0723 143.485C57.8206 143.485 66.5283 145.58 75.1953 149.771L69.0918 165.152C60.8317 161.205 54.1585 159.232 49.0723 159.232C41.9515 159.232 36.438 161.917 32.5317 167.289C28.6255 172.619 26.6724 180.065 26.6724 189.627C26.6724 209.525 34.139 219.474 49.0723 219.474C55.2979 219.474 62.8866 217.907 71.8384 214.774V230.643C64.5142 233.695 56.3354 235.221 47.3022 235.221ZM119.08 164.481C125.346 164.481 130.941 165.905 135.864 168.753C140.828 171.561 144.653 175.63 147.339 180.96C150.065 186.25 151.428 192.313 151.428 199.149C151.428 199.352 151.428 199.556 151.428 199.759C151.428 210.868 148.499 219.555 142.639 225.821C136.78 232.088 128.621 235.221 118.164 235.221C118.001 235.221 117.818 235.221 117.615 235.221C111.348 235.221 105.733 233.797 100.769 230.948C95.8455 228.059 92.0207 223.95 89.2944 218.619C86.6089 213.289 85.2661 207.206 85.2661 200.37C85.2661 200.166 85.2661 199.963 85.2661 199.759C85.2661 188.61 88.1755 179.964 93.9941 173.819C99.8128 167.594 107.992 164.481 118.53 164.481C118.693 164.481 118.876 164.481 119.08 164.481ZM129.028 184.5C126.79 181.164 123.21 179.496 118.286 179.496C113.363 179.496 109.782 181.144 107.544 184.439C105.347 187.735 104.248 192.842 104.248 199.759C104.248 206.636 105.367 211.783 107.605 215.201C109.884 218.578 113.464 220.267 118.347 220.267C123.271 220.267 126.831 218.578 129.028 215.201C131.266 211.824 132.385 206.697 132.385 199.82C132.385 192.903 131.266 187.796 129.028 184.5ZM247.009 164.481C254.862 164.481 260.742 166.495 264.648 170.523C268.555 174.552 270.508 180.879 270.508 189.505V234H251.831V194.144C251.831 189.18 250.997 185.477 249.329 183.036C247.66 180.594 245.076 179.374 241.577 179.374C236.979 179.374 233.561 181.021 231.323 184.317C229.085 187.613 227.966 192.761 227.966 199.759V234H209.351V194.144C209.351 189.18 208.516 185.477 206.848 183.036C205.18 180.594 202.596 179.374 199.097 179.374C194.336 179.374 190.877 181.123 188.721 184.623C186.564 188.122 185.486 193.88 185.486 201.896V234H166.87V165.763H181.091L183.594 174.552H184.631C186.462 171.378 189.107 168.916 192.566 167.167C196.025 165.376 199.992 164.481 204.468 164.481C214.722 164.481 221.639 167.838 225.22 174.552H226.868C228.699 171.378 231.384 168.916 234.924 167.167C238.464 165.376 242.493 164.481 247.009 164.481ZM369.812 164.481C377.665 164.481 383.545 166.495 387.451 170.523C391.357 174.552 393.311 180.879 393.311 189.505V234H374.634V194.144C374.634 189.18 373.8 185.477 372.131 183.036C370.463 180.594 367.879 179.374 364.38 179.374C359.782 179.374 356.364 181.021 354.126 184.317C351.888 187.613 350.769 192.761 350.769 199.759V234H332.153V194.144C332.153 189.18 331.319 185.477 329.651 183.036C327.983 180.594 325.399 179.374 321.899 179.374C317.139 179.374 313.68 181.123 311.523 184.623C309.367 188.122 308.289 193.88 308.289 201.896V234H289.673V165.763H303.894L306.396 174.552H307.434C309.265 171.378 311.91 168.916 315.369 167.167C318.827 165.376 322.795 164.481 327.271 164.481C337.524 164.481 344.442 167.838 348.022 174.552H349.67C351.501 171.378 354.187 168.916 357.727 167.167C361.267 165.376 365.295 164.481 369.812 164.481ZM411.682 148.185C411.682 142.081 415.059 139.029 421.814 139.029C428.569 139.029 431.946 142.061 431.946 148.124C431.946 151.053 431.091 153.312 429.382 154.898C427.673 156.485 425.151 157.279 421.814 157.279C415.059 157.279 411.682 154.247 411.682 148.185ZM431.091 234H412.476V165.763H431.091V234ZM471.313 165.763H490.417V179.74H471.313V212.638C471.313 215.201 472.026 217.134 473.45 218.436C474.915 219.738 477.071 220.389 479.919 220.389C482.768 220.389 486.511 219.677 491.15 218.253V232.108C486.511 234.183 480.652 235.221 473.572 235.221C466.532 235.221 461.283 233.369 457.825 229.667C454.407 225.923 452.698 220.247 452.698 212.638V179.74H443.787V171.866L454.041 165.641L459.412 151.236H471.313V165.763ZM525.635 165.763H544.739V179.74H525.635V212.638C525.635 215.201 526.347 217.134 527.771 218.436C529.236 219.738 531.392 220.389 534.241 220.389C537.089 220.389 540.833 219.677 545.471 218.253V232.108C540.833 234.183 534.973 235.221 527.893 235.221C520.854 235.221 515.605 233.369 512.146 229.667C508.728 225.923 507.019 220.247 507.019 212.638V179.74H498.108V171.866L508.362 165.641L513.733 151.236H525.635V165.763ZM614.197 230.399C607.931 233.613 599.935 235.221 590.21 235.221C579.224 235.221 570.638 232.189 564.453 226.126C558.268 220.064 555.176 211.397 555.176 200.125C555.176 188.854 558.024 180.126 563.721 173.941C569.417 167.634 577.209 164.481 587.097 164.481C596.985 164.481 604.594 167.228 609.924 172.721C615.336 178.173 618.042 185.762 618.042 195.487V204.52H574.036C574.239 209.85 575.806 214.001 578.735 216.971C581.706 219.901 585.815 221.366 591.064 221.366C598.796 221.366 606.506 219.575 614.197 215.995V230.399ZM600.586 192.13C600.505 187.573 599.304 184.033 596.985 181.51C594.706 178.987 591.593 177.726 587.646 177.726C583.7 177.726 580.587 178.967 578.308 181.449C576.07 183.931 574.788 187.491 574.463 192.13H600.586ZM692.81 234H678.528L674.927 225.15H674.133C669.942 231.864 663.493 235.221 654.785 235.221C646.729 235.221 640.422 232.128 635.864 225.943C631.307 219.718 629.028 211.051 629.028 199.942C629.028 188.793 631.348 180.106 635.986 173.88C640.666 167.614 647.196 164.481 655.579 164.481C663.961 164.481 670.41 167.838 674.927 174.552H675.537C674.601 169.303 674.133 164.745 674.133 160.88V139.029H692.81V234ZM675.415 200.125C675.415 192.842 674.276 187.613 671.997 184.439C669.718 181.225 666.056 179.618 661.011 179.618C656.82 179.618 653.585 181.388 651.306 184.928C649.028 188.468 647.888 193.574 647.888 200.248C647.888 206.88 649.028 211.905 651.306 215.323C653.625 218.701 657.064 220.389 661.621 220.389C666.178 220.389 669.576 219.026 671.814 216.3C674.052 213.533 675.252 208.813 675.415 202.14V200.125Z" fill="#1A2737"/>
  <path d="M1009.13 432.187H979.209V454.035H1007.27V460.993H979.209V485.949H1009.13V493H971.324V425.183H1009.13V432.187ZM1043.36 493.928C1036 493.928 1030.3 491.67 1026.25 487.155C1022.23 482.64 1020.22 476.177 1020.22 467.766C1020.22 459.354 1022.26 452.829 1026.34 448.19C1030.45 443.552 1036.3 441.232 1043.87 441.232C1046.22 441.232 1048.6 441.495 1051.02 442.021C1053.46 442.516 1055.44 443.134 1056.95 443.876L1054.59 450.417C1052.86 449.737 1051.03 449.18 1049.11 448.747C1047.2 448.314 1045.39 448.098 1043.69 448.098C1033.36 448.098 1028.19 454.669 1028.19 467.812C1028.19 474.09 1029.46 478.898 1032 482.238C1034.53 485.547 1038.26 487.202 1043.18 487.202C1047.38 487.202 1051.73 486.289 1056.21 484.465V491.284C1052.75 493.046 1048.46 493.928 1043.36 493.928ZM1065.35 467.534C1065.35 459.246 1067.41 452.798 1071.52 448.19C1075.66 443.552 1081.35 441.232 1088.59 441.232C1095.86 441.232 1101.56 443.598 1105.71 448.33C1109.94 453.03 1112.06 459.478 1112.06 467.673C1112.06 475.868 1109.97 482.3 1105.8 486.97C1101.62 491.608 1095.86 493.928 1088.5 493.928C1088.37 493.928 1088.25 493.928 1088.13 493.928C1081.41 493.928 1075.94 491.547 1071.7 486.784C1067.47 482.022 1065.35 475.821 1065.35 468.183C1065.35 467.967 1065.35 467.75 1065.35 467.534ZM1088.59 447.819C1078.42 447.819 1073.33 454.391 1073.33 467.534C1073.33 474.028 1074.63 478.976 1077.22 482.377C1079.85 485.779 1083.67 487.48 1088.68 487.48C1093.72 487.48 1097.54 485.795 1100.14 482.424C1102.77 479.022 1104.08 474.074 1104.08 467.58C1104.08 461.086 1102.77 456.169 1100.14 452.829C1097.54 449.489 1093.69 447.819 1088.59 447.819ZM1149.68 441.232C1155.87 441.232 1160.49 442.732 1163.55 445.732C1166.61 448.732 1168.14 453.432 1168.14 459.833V493H1160.44V460.112C1160.44 455.937 1159.48 452.845 1157.57 450.834C1155.68 448.824 1152.74 447.819 1148.75 447.819C1143.4 447.819 1139.49 449.257 1137.02 452.133C1134.57 455.009 1133.35 459.741 1133.35 466.328V493H1125.65V442.16H1131.91L1133.17 449.118H1133.54C1135.12 446.613 1137.31 444.681 1140.12 443.32C1142.97 441.928 1146.16 441.232 1149.68 441.232ZM1181.13 467.534C1181.13 459.246 1183.19 452.798 1187.3 448.19C1191.44 443.552 1197.13 441.232 1204.37 441.232C1211.64 441.232 1217.34 443.598 1221.49 448.33C1225.72 453.03 1227.84 459.478 1227.84 467.673C1227.84 475.868 1225.75 482.3 1221.58 486.97C1217.41 491.608 1211.64 493.928 1204.28 493.928C1204.15 493.928 1204.03 493.928 1203.91 493.928C1197.2 493.928 1191.72 491.547 1187.49 486.784C1183.25 482.022 1181.13 475.821 1181.13 468.183C1181.13 467.967 1181.13 467.75 1181.13 467.534ZM1204.37 447.819C1194.2 447.819 1189.11 454.391 1189.11 467.534C1189.11 474.028 1190.41 478.976 1193.01 482.377C1195.63 485.779 1199.45 487.48 1204.46 487.48C1209.5 487.48 1213.32 485.795 1215.92 482.424C1218.55 479.022 1219.86 474.074 1219.86 467.58C1219.86 461.086 1218.55 456.169 1215.92 452.829C1213.32 449.489 1209.47 447.819 1204.37 447.819ZM1296.73 441.232C1302.54 441.232 1306.85 442.732 1309.67 445.732C1312.51 448.732 1313.94 453.432 1313.94 459.833V493H1306.24V459.926C1306.24 455.844 1305.35 452.814 1303.59 450.834C1301.86 448.824 1299.19 447.819 1295.57 447.819C1290.77 447.819 1287.23 449.195 1284.94 451.948C1282.66 454.669 1281.51 458.89 1281.51 464.611V493H1273.81V459.926C1273.81 455.844 1272.93 452.814 1271.17 450.834C1269.44 448.824 1266.75 447.819 1263.1 447.819C1258.24 447.819 1254.7 449.257 1252.47 452.133C1250.25 455.009 1249.13 459.741 1249.13 466.328V493H1241.43V442.16H1247.7L1248.95 449.118H1249.32C1250.77 446.644 1252.81 444.711 1255.44 443.32C1258.1 441.928 1261.07 441.232 1264.35 441.232C1272.27 441.232 1277.46 444.108 1279.93 449.86H1280.31C1281.82 447.17 1284.02 445.067 1286.89 443.552C1289.8 442.006 1293.08 441.232 1296.73 441.232ZM1329.2 428.383C1329.2 426.682 1329.61 425.415 1330.45 424.58C1331.28 423.714 1332.37 423.281 1333.7 423.281C1335.03 423.281 1336.12 423.714 1336.99 424.58C1337.86 425.445 1338.29 426.713 1338.29 428.383C1338.29 430.053 1337.86 431.337 1336.99 432.233C1336.12 433.099 1335.03 433.532 1333.7 433.532C1332.37 433.532 1331.28 433.099 1330.45 432.233C1329.61 431.337 1329.2 430.053 1329.2 428.383ZM1337.55 493H1329.85V442.16H1337.55V493ZM1374.19 493.928C1366.83 493.928 1361.13 491.67 1357.08 487.155C1353.06 482.64 1351.05 476.177 1351.05 467.766C1351.05 459.354 1353.09 452.829 1357.17 448.19C1361.28 443.552 1367.13 441.232 1374.7 441.232C1377.05 441.232 1379.43 441.495 1381.85 442.021C1384.29 442.516 1386.27 443.134 1387.78 443.876L1385.42 450.417C1383.69 449.737 1381.86 449.18 1379.94 448.747C1378.03 448.314 1376.22 448.098 1374.52 448.098C1364.19 448.098 1359.02 454.669 1359.02 467.812C1359.02 474.09 1360.29 478.898 1362.83 482.238C1365.36 485.547 1369.09 487.202 1374.01 487.202C1378.21 487.202 1382.56 486.289 1387.04 484.465V491.284C1383.58 493.046 1379.29 493.928 1374.19 493.928ZM1424.89 425.183H1445.67C1456.22 425.183 1464.41 428.105 1470.26 433.95C1476.1 439.794 1479.03 447.958 1479.03 458.442C1479.03 469.637 1475.98 478.203 1469.89 484.14C1463.8 490.047 1455.06 493 1443.68 493H1424.89V425.183ZM1432.78 432.001V486.181H1442.38C1451.75 486.181 1458.8 483.877 1463.53 479.27C1468.3 474.631 1470.68 467.843 1470.68 458.906C1470.68 449.938 1468.45 443.212 1464 438.728C1459.54 434.243 1452.96 432.001 1444.24 432.001H1432.78ZM1514.51 493.928C1507 493.928 1501.06 491.639 1496.7 487.062C1492.37 482.455 1490.21 476.069 1490.21 467.905C1490.21 459.741 1492.22 453.262 1496.24 448.469C1500.29 443.645 1505.61 441.232 1512.19 441.232C1518.81 441.232 1523.96 443.351 1527.64 447.587C1531.35 451.7 1533.21 457.205 1533.21 464.101V468.972H1498.18C1498.34 474.909 1499.84 479.44 1502.68 482.563C1505.53 485.655 1509.63 487.202 1514.98 487.202C1520.33 487.202 1525.66 486.057 1530.98 483.769V490.634C1528.29 491.809 1525.71 492.644 1523.23 493.139C1520.79 493.665 1517.88 493.928 1514.51 493.928ZM1524.95 462.709C1524.95 457.885 1523.87 454.19 1521.7 451.623C1519.54 449.025 1516.43 447.727 1512.38 447.727C1508.36 447.727 1505.13 449.041 1502.68 451.669C1500.24 454.298 1498.8 457.978 1498.37 462.709H1524.95ZM1566.51 493H1557.51L1538.22 442.16H1546.47L1557.42 472.312C1559.96 479.548 1561.41 484.125 1561.78 486.042H1562.15C1562.46 484.434 1563.5 481.14 1565.26 476.162C1567.02 471.152 1571.12 459.818 1577.55 442.16H1585.81L1566.51 493ZM1615.45 493.928C1607.94 493.928 1602 491.639 1597.64 487.062C1593.31 482.455 1591.14 476.069 1591.14 467.905C1591.14 459.741 1593.15 453.262 1597.17 448.469C1601.22 443.645 1606.54 441.232 1613.13 441.232C1619.75 441.232 1624.9 443.351 1628.58 447.587C1632.29 451.7 1634.14 457.205 1634.14 464.101V468.972H1599.12C1599.28 474.909 1600.78 479.44 1603.62 482.563C1606.47 485.655 1610.56 487.202 1615.91 487.202C1621.26 487.202 1626.6 486.057 1631.92 483.769V490.634C1629.23 491.809 1626.64 492.644 1624.17 493.139C1621.73 493.665 1618.82 493.928 1615.45 493.928ZM1625.89 462.709C1625.89 457.885 1624.8 454.19 1622.64 451.623C1620.47 449.025 1617.37 447.727 1613.32 447.727C1609.3 447.727 1606.06 449.041 1603.62 451.669C1601.18 454.298 1599.74 457.978 1599.31 462.709H1625.89ZM1655.02 493H1647.32V420.822H1655.02V493ZM1668.47 467.534C1668.47 459.246 1670.53 452.798 1674.64 448.19C1678.78 443.552 1684.47 441.232 1691.71 441.232C1698.98 441.232 1704.68 443.598 1708.83 448.33C1713.06 453.03 1715.18 459.478 1715.18 467.673C1715.18 475.868 1713.09 482.3 1708.92 486.97C1704.74 491.608 1698.98 493.928 1691.62 493.928C1691.49 493.928 1691.37 493.928 1691.25 493.928C1684.53 493.928 1679.06 491.547 1674.82 486.784C1670.59 482.022 1668.47 475.821 1668.47 468.183C1668.47 467.967 1668.47 467.75 1668.47 467.534ZM1691.71 447.819C1681.54 447.819 1676.45 454.391 1676.45 467.534C1676.45 474.028 1677.75 478.976 1680.34 482.377C1682.97 485.779 1686.79 487.48 1691.8 487.48C1696.84 487.48 1700.66 485.795 1703.26 482.424C1705.89 479.022 1707.2 474.074 1707.2 467.58C1707.2 461.086 1705.89 456.169 1703.26 452.829C1700.66 449.489 1696.81 447.819 1691.71 447.819ZM1736.47 449.118C1740.18 443.861 1745.44 441.232 1752.24 441.232C1759.08 441.232 1764.34 443.536 1768.02 448.144C1771.7 452.752 1773.54 459.23 1773.54 467.58C1773.54 475.93 1771.66 482.408 1767.92 487.016C1764.21 491.624 1758.95 493.928 1752.15 493.928C1745.35 493.928 1740.12 491.438 1736.47 486.459H1735.92C1736.29 489.428 1736.47 492.242 1736.47 494.902V515.822H1728.77V442.16H1735.03L1736.1 449.118H1736.47ZM1736.47 467.534C1736.47 474.646 1737.66 479.764 1740.04 482.888C1742.43 485.949 1746.24 487.48 1751.5 487.48C1755.92 487.48 1759.36 485.717 1761.8 482.192C1764.27 478.636 1765.51 473.719 1765.51 467.441C1765.51 461.132 1764.27 456.293 1761.8 452.922C1759.36 449.52 1755.86 447.819 1751.32 447.819C1746.09 447.819 1742.32 449.257 1740 452.133C1737.68 455.009 1736.5 459.571 1736.47 465.817V467.534ZM1842.33 441.232C1848.14 441.232 1852.45 442.732 1855.27 445.732C1858.11 448.732 1859.54 453.432 1859.54 459.833V493H1851.84V459.926C1851.84 455.844 1850.96 452.814 1849.19 450.834C1847.46 448.824 1844.79 447.819 1841.17 447.819C1836.37 447.819 1832.83 449.195 1830.54 451.948C1828.26 454.669 1827.11 458.89 1827.11 464.611V493H1819.41V459.926C1819.41 455.844 1818.53 452.814 1816.77 450.834C1815.04 448.824 1812.35 447.819 1808.7 447.819C1803.84 447.819 1800.3 449.257 1798.07 452.133C1795.85 455.009 1794.73 459.741 1794.73 466.328V493H1787.03V442.16H1793.3L1794.55 449.118H1794.92C1796.37 446.644 1798.41 444.711 1801.04 443.32C1803.7 441.928 1806.67 441.232 1809.95 441.232C1817.87 441.232 1823.06 444.108 1825.54 449.86H1825.91C1827.42 447.17 1829.62 445.067 1832.49 443.552C1835.4 442.006 1838.68 441.232 1842.33 441.232ZM1896.92 493.928C1889.41 493.928 1883.47 491.639 1879.11 487.062C1874.78 482.455 1872.62 476.069 1872.62 467.905C1872.62 459.741 1874.63 453.262 1878.65 448.469C1882.7 443.645 1888.02 441.232 1894.6 441.232C1901.22 441.232 1906.37 443.351 1910.05 447.587C1913.76 451.7 1915.62 457.205 1915.62 464.101V468.972H1880.6C1880.75 474.909 1882.25 479.44 1885.1 482.563C1887.94 485.655 1892.04 487.202 1897.39 487.202C1902.74 487.202 1908.07 486.057 1913.39 483.769V490.634C1910.7 491.809 1908.12 492.644 1905.65 493.139C1903.2 493.665 1900.3 493.928 1896.92 493.928ZM1907.36 462.709C1907.36 457.885 1906.28 454.19 1904.11 451.623C1901.95 449.025 1898.84 447.727 1894.79 447.727C1890.77 447.727 1887.54 449.041 1885.1 451.669C1882.65 454.298 1881.21 457.978 1880.78 462.709H1907.36ZM1952.82 441.232C1959.01 441.232 1963.63 442.732 1966.69 445.732C1969.75 448.732 1971.28 453.432 1971.28 459.833V493H1963.58V460.112C1963.58 455.937 1962.62 452.845 1960.71 450.834C1958.82 448.824 1955.88 447.819 1951.89 447.819C1946.54 447.819 1942.63 449.257 1940.16 452.133C1937.71 455.009 1936.49 459.741 1936.49 466.328V493H1928.79V442.16H1935.05L1936.31 449.118H1936.68C1938.25 446.613 1940.45 444.681 1943.26 443.32C1946.11 441.928 1949.29 441.232 1952.82 441.232ZM1995.4 442.16H2010.15V448.144H1995.4V478.063C1995.4 481.094 1996.11 483.444 1997.54 485.114C1998.99 486.753 2000.97 487.573 2003.47 487.573C2005.98 487.573 2008.33 487.264 2010.53 486.645V492.583C2009.78 492.954 2008.58 493.263 2006.91 493.51C2005.24 493.789 2003.75 493.928 2002.45 493.928C1992.62 493.928 1987.7 488.748 1987.7 478.388V448.144H1980.42V444.433L1987.7 441.232L1990.95 430.378H1995.4V442.16Z" fill="#1A2737"/>
  <path d="M648.798 67.0449C648.798 55.943 651.52 47.346 656.962 41.2539C662.405 35.1618 670.059 32.1157 679.924 32.1157C689.82 32.1157 697.504 35.2082 702.978 41.3931C708.452 47.578 711.188 56.1131 711.188 66.9985C711.188 77.884 708.436 86.4346 702.932 92.6504C697.458 98.8353 689.773 101.928 679.877 101.928C670.013 101.928 662.359 98.8817 656.916 92.7896C651.504 86.6974 648.798 78.1159 648.798 67.0449ZM702.839 67.0913C702.839 57.9067 700.922 50.9642 697.087 46.2637C693.283 41.5322 687.624 39.1665 680.109 39.1665C672.626 39.1665 666.92 41.5477 662.993 46.3101C659.096 51.0415 657.148 57.9686 657.148 67.0913C657.148 76.1831 659.096 83.1102 662.993 87.8726C666.92 92.6349 672.626 95.0161 680.109 95.0161C687.593 95.0161 693.252 92.6504 697.087 87.9189C700.922 83.1875 702.839 76.245 702.839 67.0913ZM732.897 57.1182C736.608 51.861 741.866 49.2324 748.669 49.2324C755.503 49.2324 760.76 51.5363 764.44 56.144C768.12 60.7518 769.96 67.2305 769.96 75.5801C769.96 83.9297 768.09 90.4084 764.348 95.0161C760.637 99.6239 755.38 101.928 748.576 101.928C741.773 101.928 736.547 99.4383 732.897 94.4595H732.341C732.712 97.4282 732.897 100.242 732.897 102.902V123.822H725.197V50.1602H731.459L732.526 57.1182H732.897ZM732.897 75.5337C732.897 82.6463 734.088 87.7643 736.469 90.8877C738.85 93.9492 742.67 95.48 747.927 95.48C752.349 95.48 755.782 93.7173 758.225 90.1919C760.699 86.6356 761.936 81.7186 761.936 75.4409C761.936 69.1323 760.699 64.2926 758.225 60.9219C755.782 57.5202 752.287 55.8193 747.741 55.8193C742.515 55.8193 738.742 57.2573 736.423 60.1333C734.104 63.0093 732.928 67.5706 732.897 73.8174V75.5337ZM791.159 57.1182C794.87 51.861 800.127 49.2324 806.931 49.2324C813.765 49.2324 819.022 51.5363 822.702 56.144C826.382 60.7518 828.222 67.2305 828.222 75.5801C828.222 83.9297 826.351 90.4084 822.609 95.0161C818.898 99.6239 813.641 101.928 806.838 101.928C800.035 101.928 794.808 99.4383 791.159 94.4595H790.603C790.974 97.4282 791.159 100.242 791.159 102.902V123.822H783.459V50.1602H789.721L790.788 57.1182H791.159ZM791.159 75.5337C791.159 82.6463 792.35 87.7643 794.731 90.8877C797.112 93.9492 800.931 95.48 806.188 95.48C810.611 95.48 814.043 93.7173 816.486 90.1919C818.96 86.6356 820.197 81.7186 820.197 75.4409C820.197 69.1323 818.96 64.2926 816.486 60.9219C814.043 57.5202 810.549 55.8193 806.003 55.8193C800.777 55.8193 797.004 57.2573 794.685 60.1333C792.365 63.0093 791.19 67.5706 791.159 73.8174V75.5337ZM838.845 75.5337C838.845 67.2459 840.901 60.7982 845.014 56.1904C849.158 51.5518 854.848 49.2324 862.084 49.2324C869.352 49.2324 875.057 51.5981 879.201 56.3296C883.438 61.0301 885.556 67.4779 885.556 75.6729C885.556 83.8678 883.469 90.3001 879.294 94.9697C875.119 99.6084 869.352 101.928 861.992 101.928C861.868 101.928 861.744 101.928 861.621 101.928C854.91 101.928 849.436 99.5465 845.2 94.7842C840.963 90.0218 838.845 83.8215 838.845 76.1831C838.845 75.9666 838.845 75.7502 838.845 75.5337ZM862.084 55.8193C851.91 55.8193 846.823 62.3908 846.823 75.5337C846.823 82.0278 848.122 86.9757 850.72 90.3774C853.348 93.7791 857.167 95.48 862.177 95.48C867.218 95.48 871.037 93.7946 873.635 90.4238C876.263 87.0221 877.578 82.0742 877.578 75.5801C877.578 69.0859 876.263 64.1689 873.635 60.8291C871.037 57.4893 867.187 55.8193 862.084 55.8193ZM922.341 49.2324C924.567 49.2324 926.593 49.418 928.417 49.7891L927.351 56.9326C925.248 56.4688 923.392 56.2368 921.784 56.2368C917.64 56.2368 914.115 57.9067 911.208 61.2466C908.301 64.5555 906.848 68.7148 906.848 73.7246V101H899.147V50.1602H905.502L906.384 59.5767H906.755C908.641 56.2368 910.914 53.6855 913.574 51.9229C916.264 50.1292 919.187 49.2324 922.341 49.2324ZM946.184 50.1602H960.935V56.144H946.184V86.0635C946.184 89.0941 946.895 91.4443 948.317 93.1143C949.771 94.7533 951.75 95.5728 954.255 95.5728C956.76 95.5728 959.11 95.2635 961.306 94.645V100.583C960.563 100.954 959.357 101.263 957.688 101.51C956.018 101.789 954.533 101.928 953.234 101.928C943.4 101.928 938.483 96.7479 938.483 86.3882V56.144H931.201V52.4331L938.483 49.2324L941.73 38.3779H946.184V50.1602ZM1013.49 101H1007.14L1006.02 94.1812H1005.6C1004.03 96.686 1001.85 98.6034 999.064 99.9331C996.281 101.263 993.081 101.928 989.462 101.928C983.185 101.928 978.531 100.459 975.5 97.521C972.469 94.5522 970.954 89.8517 970.954 83.4194V50.1602H978.747V83.1411C978.747 87.3159 979.69 90.4238 981.577 92.4648C983.494 94.4749 986.447 95.48 990.437 95.48C995.756 95.48 999.637 94.0265 1002.08 91.1196C1004.55 88.1818 1005.79 83.4349 1005.79 76.8789V50.1602H1013.49V101ZM1053.89 49.2324C1060.08 49.2324 1064.7 50.7323 1067.76 53.7319C1070.82 56.7316 1072.36 61.4321 1072.36 67.8335V101H1064.66V68.1118C1064.66 63.937 1063.7 60.8446 1061.78 58.8345C1059.89 56.8244 1056.96 55.8193 1052.97 55.8193C1047.62 55.8193 1043.7 57.2573 1041.23 60.1333C1038.79 63.0093 1037.57 67.7407 1037.57 74.3276V101H1029.87V50.1602H1036.13L1037.38 57.1182H1037.75C1039.33 54.6133 1041.52 52.6805 1044.34 51.3198C1047.18 49.9282 1050.37 49.2324 1053.89 49.2324ZM1087.57 36.3833C1087.57 34.6825 1087.99 33.4146 1088.82 32.5796C1089.66 31.7137 1090.74 31.2808 1092.07 31.2808C1093.4 31.2808 1094.5 31.7137 1095.36 32.5796C1096.23 33.4455 1096.66 34.7134 1096.66 36.3833C1096.66 38.0532 1096.23 39.3366 1095.36 40.2334C1094.5 41.0993 1093.4 41.5322 1092.07 41.5322C1090.74 41.5322 1089.66 41.0993 1088.82 40.2334C1087.99 39.3366 1087.57 38.0532 1087.57 36.3833ZM1095.92 101H1088.22V50.1602H1095.92V101ZM1120.5 50.1602H1135.26V56.144H1120.5V86.0635C1120.5 89.0941 1121.22 91.4443 1122.64 93.1143C1124.09 94.7533 1126.07 95.5728 1128.58 95.5728C1131.08 95.5728 1133.43 95.2635 1135.63 94.645V100.583C1134.88 100.954 1133.68 101.263 1132.01 101.51C1130.34 101.789 1128.85 101.928 1127.56 101.928C1117.72 101.928 1112.8 96.7479 1112.8 86.3882V56.144H1105.52V52.4331L1112.8 49.2324L1116.05 38.3779H1120.5V50.1602ZM1145.18 36.3833C1145.18 34.6825 1145.6 33.4146 1146.44 32.5796C1147.27 31.7137 1148.35 31.2808 1149.68 31.2808C1151.01 31.2808 1152.11 31.7137 1152.98 32.5796C1153.84 33.4455 1154.27 34.7134 1154.27 36.3833C1154.27 38.0532 1153.84 39.3366 1152.98 40.2334C1152.11 41.0993 1151.01 41.5322 1149.68 41.5322C1148.35 41.5322 1147.27 41.0993 1146.44 40.2334C1145.6 39.3366 1145.18 38.0532 1145.18 36.3833ZM1153.53 101H1145.83V50.1602H1153.53V101ZM1191.34 101.928C1183.82 101.928 1177.89 99.6393 1173.52 95.0625C1169.2 90.4548 1167.03 84.0688 1167.03 75.9048C1167.03 67.7407 1169.04 61.262 1173.06 56.4688C1177.11 51.6445 1182.43 49.2324 1189.02 49.2324C1195.64 49.2324 1200.78 51.3507 1204.46 55.5874C1208.18 59.7004 1210.03 65.2049 1210.03 72.1011V76.9717H1175.01C1175.16 82.9092 1176.66 87.4396 1179.51 90.563C1182.35 93.6554 1186.45 95.2017 1191.8 95.2017C1197.15 95.2017 1202.49 94.0575 1207.8 91.769V98.6343C1205.11 99.8094 1202.53 100.644 1200.06 101.139C1197.62 101.665 1194.71 101.928 1191.34 101.928ZM1201.77 70.7095C1201.77 65.8853 1200.69 62.1898 1198.53 59.623C1196.36 57.0254 1193.25 55.7266 1189.2 55.7266C1185.18 55.7266 1181.95 57.0409 1179.51 59.6694C1177.07 62.298 1175.63 65.978 1175.19 70.7095H1201.77ZM1236.05 95.5728C1244.4 95.5728 1248.58 92.9751 1248.58 87.7798C1248.58 85.8006 1247.71 84.1152 1245.98 82.7236C1244.28 81.3011 1240.94 79.6312 1235.96 77.7139C1231.2 75.9512 1227.81 74.4049 1225.8 73.0752C1223.82 71.7454 1222.35 70.2611 1221.4 68.6221C1220.44 66.9831 1219.96 64.9884 1219.96 62.6382C1219.96 58.5252 1221.64 55.2627 1225.01 52.8506C1228.38 50.4385 1232.9 49.2324 1238.56 49.2324C1244.22 49.2324 1249.68 50.3457 1254.93 52.5723L1252.2 58.8345C1247.13 56.7625 1242.64 55.7266 1238.74 55.7266C1234.88 55.7266 1232 56.2832 1230.12 57.3965C1228.23 58.5098 1227.29 60.0869 1227.29 62.1279C1227.29 63.4886 1227.63 64.6483 1228.31 65.6069C1228.99 66.5656 1230.1 67.4779 1231.65 68.3438C1233.19 69.2096 1236.18 70.4621 1240.6 72.1011C1246.63 74.2967 1250.7 76.5078 1252.8 78.7344C1254.93 80.9609 1256 83.7596 1256 87.1304C1256 91.8618 1254.22 95.5109 1250.67 98.0776C1247.14 100.644 1242.1 101.928 1235.54 101.928C1229.02 101.928 1223.87 100.861 1220.1 98.7271V91.5835C1225.35 94.243 1230.67 95.5728 1236.05 95.5728Z" fill="#1A2737"/>
  <path d="M231.75 352.016C236.945 352.016 240.888 351.027 243.579 349.047C246.269 347.068 247.614 344.285 247.614 340.698C247.614 338.378 247.135 336.461 246.176 334.946C245.249 333.431 243.687 332.054 241.491 330.817C239.326 329.549 235.956 328.096 231.379 326.457C225.039 324.169 220.524 321.478 217.834 318.386C215.144 315.293 213.798 311.211 213.798 306.14C213.798 301.037 215.762 296.94 219.689 293.847C223.617 290.755 228.874 289.208 235.461 289.208C242.048 289.208 248.171 290.445 253.83 292.919L251.418 299.785C245.852 297.434 240.409 296.259 235.09 296.259C230.915 296.259 227.653 297.156 225.302 298.95C222.952 300.743 221.777 303.233 221.777 306.418C221.777 308.737 222.21 310.655 223.076 312.17C223.942 313.685 225.364 315.061 227.343 316.298C229.353 317.504 232.539 318.896 236.899 320.473C244.073 323.071 248.975 325.823 251.604 328.73C254.263 331.637 255.593 335.379 255.593 339.956C255.593 345.862 253.428 350.516 249.099 353.918C244.769 357.258 238.723 358.928 230.961 358.928C223.199 358.928 217.185 357.892 212.917 355.82V348.212C218.885 350.748 225.163 352.016 231.75 352.016ZM310.283 358H303.928L302.814 351.181H302.397C300.82 353.686 298.64 355.603 295.856 356.933C293.073 358.263 289.873 358.928 286.254 358.928C279.977 358.928 275.323 357.459 272.292 354.521C269.261 351.552 267.746 346.852 267.746 340.419V307.16H275.539V340.141C275.539 344.316 276.482 347.424 278.369 349.465C280.286 351.475 283.239 352.48 287.229 352.48C292.548 352.48 296.429 351.027 298.872 348.12C301.346 345.182 302.583 340.435 302.583 333.879V307.16H310.283V358ZM334.357 314.118C338.068 308.861 343.326 306.232 350.129 306.232C356.963 306.232 362.22 308.536 365.9 313.144C369.58 317.752 371.42 324.23 371.42 332.58C371.42 340.93 369.549 347.408 365.808 352.016C362.097 356.624 356.84 358.928 350.036 358.928C343.233 358.928 338.007 356.438 334.357 351.459H333.801C334.172 354.428 334.357 357.242 334.357 359.902V380.822H326.657V307.16H332.919L333.986 314.118H334.357ZM334.357 332.534C334.357 339.646 335.548 344.764 337.929 347.888C340.31 350.949 344.13 352.48 349.387 352.48C353.809 352.48 357.242 350.717 359.685 347.192C362.159 343.636 363.396 338.719 363.396 332.441C363.396 326.132 362.159 321.293 359.685 317.922C357.242 314.52 353.747 312.819 349.201 312.819C343.975 312.819 340.202 314.257 337.883 317.133C335.563 320.009 334.388 324.571 334.357 330.817V332.534ZM392.619 314.118C396.33 308.861 401.587 306.232 408.391 306.232C415.225 306.232 420.482 308.536 424.162 313.144C427.842 317.752 429.682 324.23 429.682 332.58C429.682 340.93 427.811 347.408 424.069 352.016C420.358 356.624 415.101 358.928 408.298 358.928C401.494 358.928 396.268 356.438 392.619 351.459H392.062C392.434 354.428 392.619 357.242 392.619 359.902V380.822H384.919V307.16H391.181L392.248 314.118H392.619ZM392.619 332.534C392.619 339.646 393.81 344.764 396.191 347.888C398.572 350.949 402.391 352.48 407.648 352.48C412.071 352.48 415.503 350.717 417.946 347.192C420.42 343.636 421.657 338.719 421.657 332.441C421.657 326.132 420.42 321.293 417.946 317.922C415.503 314.52 412.009 312.819 407.463 312.819C402.237 312.819 398.464 314.257 396.145 317.133C393.825 320.009 392.65 324.571 392.619 330.817V332.534ZM440.305 332.534C440.305 324.246 442.361 317.798 446.474 313.19C450.618 308.552 456.308 306.232 463.544 306.232C470.812 306.232 476.517 308.598 480.661 313.33C484.898 318.03 487.016 324.478 487.016 332.673C487.016 340.868 484.929 347.3 480.754 351.97C476.579 356.608 470.812 358.928 463.452 358.928C463.328 358.928 463.204 358.928 463.081 358.928C456.37 358.928 450.896 356.547 446.66 351.784C442.423 347.022 440.305 340.821 440.305 333.183C440.305 332.967 440.305 332.75 440.305 332.534ZM463.544 312.819C453.37 312.819 448.283 319.391 448.283 332.534C448.283 339.028 449.582 343.976 452.18 347.377C454.808 350.779 458.627 352.48 463.637 352.48C468.678 352.48 472.497 350.795 475.095 347.424C477.723 344.022 479.038 339.074 479.038 332.58C479.038 326.086 477.723 321.169 475.095 317.829C472.497 314.489 468.647 312.819 463.544 312.819ZM523.801 306.232C526.027 306.232 528.053 306.418 529.877 306.789L528.811 313.933C526.708 313.469 524.852 313.237 523.244 313.237C519.1 313.237 515.575 314.907 512.668 318.247C509.761 321.556 508.308 325.715 508.308 330.725V358H500.607V307.16H506.962L507.844 316.577H508.215C510.101 313.237 512.374 310.686 515.034 308.923C517.724 307.129 520.646 306.232 523.801 306.232ZM547.644 307.16H562.395V313.144H547.644V343.063C547.644 346.094 548.355 348.444 549.777 350.114C551.231 351.753 553.21 352.573 555.715 352.573C558.22 352.573 560.57 352.264 562.766 351.645V357.583C562.023 357.954 560.817 358.263 559.147 358.51C557.478 358.789 555.993 358.928 554.694 358.928C544.86 358.928 539.943 353.748 539.943 343.388V313.144H532.661V309.433L539.943 306.232L543.19 295.378H547.644V307.16Z" fill="#1A2737"/>
  <path d="M669.738 367.46H686.547C695.288 367.46 702.075 369.767 706.909 374.381C711.743 378.996 714.16 385.441 714.16 393.717C714.16 402.531 711.645 409.281 706.616 413.969C701.611 418.656 694.372 421 684.899 421H669.738V367.46ZM681.091 376.762V411.625H685.961C696.899 411.625 702.368 405.753 702.368 394.01C702.368 382.511 697.29 376.762 687.133 376.762H681.091ZM723.901 369.511C723.901 365.849 725.927 364.018 729.98 364.018C734.033 364.018 736.059 365.836 736.059 369.474C736.059 371.232 735.546 372.587 734.521 373.539C733.496 374.491 731.982 374.967 729.98 374.967C725.927 374.967 723.901 373.148 723.901 369.511ZM735.546 421H724.377V380.058H735.546V421ZM768.505 421H757.043L741.442 380.058H753.125L761.035 403.385C761.914 406.364 762.463 409.159 762.683 411.771H762.902C763 409.452 763.549 406.657 764.55 403.385L772.424 380.058H784.106L768.505 421ZM822.924 418.839C819.165 420.768 814.367 421.732 808.532 421.732C801.94 421.732 796.789 419.914 793.078 416.276C789.367 412.638 787.512 407.438 787.512 400.675C787.512 393.913 789.221 388.676 792.639 384.965C796.057 381.181 800.732 379.289 806.665 379.289C812.597 379.289 817.163 380.937 820.361 384.232C823.608 387.504 825.231 392.057 825.231 397.892V403.312H798.828C798.95 406.51 799.89 409 801.647 410.783C803.43 412.541 805.896 413.419 809.045 413.419C813.684 413.419 818.31 412.345 822.924 410.197V418.839ZM814.758 395.878C814.709 393.144 813.989 391.02 812.597 389.506C811.23 387.992 809.362 387.235 806.994 387.235C804.626 387.235 802.758 387.98 801.391 389.469C800.048 390.958 799.279 393.095 799.084 395.878H814.758ZM857.165 379.289C858.703 379.289 859.96 379.398 860.937 379.618L860.095 390.092C859.216 389.848 858.117 389.726 856.799 389.726C853.234 389.726 850.451 390.641 848.449 392.472C846.472 394.303 845.483 396.867 845.483 400.163V421H834.313V380.058H842.773L844.421 386.942H844.97C846.289 384.599 847.998 382.755 850.097 381.413C852.246 379.997 854.602 379.289 857.165 379.289ZM879.833 413.566C883.886 413.566 885.913 412.394 885.913 410.05C885.913 408.854 885.375 407.902 884.301 407.194C883.251 406.486 880.834 405.29 877.05 403.605C873.901 402.287 871.582 401.066 870.092 399.943C868.627 398.82 867.553 397.538 866.87 396.098C866.21 394.633 865.881 392.838 865.881 390.714C865.881 387.077 867.285 384.269 870.092 382.292C872.924 380.29 876.879 379.289 881.958 379.289C887.036 379.289 891.882 380.363 896.496 382.511L893.127 390.568C890.759 389.567 888.72 388.822 887.011 388.334C885.327 387.821 883.63 387.565 881.921 387.565C878.625 387.565 876.977 388.456 876.977 390.238C876.977 391.239 877.514 392.118 878.588 392.875C879.663 393.607 881.884 394.645 885.253 395.988C888.647 397.331 891.088 398.576 892.578 399.723C895.483 401.92 896.936 405.045 896.936 409.098C896.936 413.151 895.471 416.276 892.541 418.473C889.611 420.646 885.375 421.732 879.833 421.732C874.292 421.732 869.653 420.939 865.917 419.352V410.124C868.017 411.1 870.361 411.918 872.949 412.577C875.561 413.236 877.856 413.566 879.833 413.566ZM938.574 418.839C934.814 420.768 930.017 421.732 924.182 421.732C917.59 421.732 912.438 419.914 908.728 416.276C905.017 412.638 903.161 407.438 903.161 400.675C903.161 393.913 904.87 388.676 908.288 384.965C911.706 381.181 916.381 379.289 922.314 379.289C928.247 379.289 932.812 380.937 936.01 384.232C939.257 387.504 940.881 392.057 940.881 397.892V403.312H914.477C914.599 406.51 915.539 409 917.297 410.783C919.079 412.541 921.545 413.419 924.694 413.419C929.333 413.419 933.959 412.345 938.574 410.197V418.839ZM930.407 395.878C930.358 393.144 929.638 391.02 928.247 389.506C926.879 387.992 925.012 387.235 922.644 387.235C920.275 387.235 918.408 387.98 917.041 389.469C915.698 390.958 914.929 393.095 914.733 395.878H930.407Z" fill="#1A2737"/>
  <path d="M1700.13 185.187H1670.21V207.035H1698.27V213.993H1670.21V238.949H1700.13V246H1662.32V178.183H1700.13V185.187ZM1755.93 246H1749.67L1748.65 239.181H1748.23C1744.64 244.346 1739.42 246.928 1732.55 246.928C1725.72 246.928 1720.45 244.655 1716.74 240.109C1713.06 235.532 1711.22 229.069 1711.22 220.719C1711.22 212.339 1713.07 205.829 1716.78 201.19C1720.49 196.552 1725.72 194.232 1732.46 194.232C1739.23 194.232 1744.46 196.737 1748.14 201.747H1748.74L1748.42 198.083L1748.23 194.511V173.822H1755.93V246ZM1748.23 222.343V220.719C1748.23 213.514 1747.03 208.38 1744.61 205.319C1742.29 202.257 1738.48 200.727 1733.16 200.727C1728.64 200.727 1725.18 202.474 1722.77 205.968C1720.38 209.432 1719.19 214.395 1719.19 220.858C1719.19 227.322 1720.38 232.208 1722.77 235.517C1725.15 238.826 1728.64 240.48 1733.25 240.48C1738.51 240.48 1742.31 239.057 1744.66 236.212C1747.04 233.336 1748.23 228.713 1748.23 222.343ZM1814.29 246H1807.93L1806.82 239.181H1806.4C1804.82 241.686 1802.64 243.603 1799.86 244.933C1797.08 246.263 1793.88 246.928 1790.26 246.928C1783.98 246.928 1779.33 245.459 1776.3 242.521C1773.27 239.552 1771.75 234.852 1771.75 228.419V195.16H1779.54V228.141C1779.54 232.316 1780.49 235.424 1782.37 237.465C1784.29 239.475 1787.24 240.48 1791.23 240.48C1796.55 240.48 1800.43 239.027 1802.88 236.12C1805.35 233.182 1806.59 228.435 1806.59 221.879V195.16H1814.29V246ZM1850.98 246.928C1843.62 246.928 1837.91 244.67 1833.86 240.155C1829.84 235.64 1827.83 229.177 1827.83 220.766C1827.83 212.354 1829.87 205.829 1833.95 201.19C1838.07 196.552 1843.91 194.232 1851.49 194.232C1853.84 194.232 1856.22 194.495 1858.63 195.021C1861.08 195.516 1863.05 196.134 1864.57 196.876L1862.2 203.417C1860.47 202.737 1858.65 202.18 1856.73 201.747C1854.81 201.314 1853 201.098 1851.3 201.098C1840.97 201.098 1835.81 207.669 1835.81 220.812C1835.81 227.09 1837.08 231.898 1839.61 235.238C1842.15 238.547 1845.88 240.202 1850.79 240.202C1855 240.202 1859.34 239.289 1863.83 237.465V244.284C1860.36 246.046 1856.08 246.928 1850.98 246.928ZM1877.74 198.686C1883.06 195.779 1888.78 194.325 1894.91 194.325C1901.03 194.325 1905.53 195.686 1908.41 198.407C1911.31 201.098 1912.77 205.396 1912.77 211.303V246H1907.11L1905.58 238.764H1905.2C1902.67 241.949 1900.13 244.114 1897.6 245.258C1895.09 246.371 1891.95 246.928 1888.18 246.928C1883.14 246.928 1879.18 245.629 1876.31 243.031C1873.43 240.403 1871.99 236.707 1871.99 231.945C1871.99 221.709 1880.22 216.328 1896.67 215.802L1905.3 215.524V212.37C1905.3 208.349 1904.43 205.412 1902.7 203.556C1901 201.67 1898.12 200.727 1894.07 200.727C1890.02 200.727 1885.37 202.01 1880.11 204.577L1877.74 198.686ZM1880.11 232.038C1880.11 234.79 1880.94 236.908 1882.61 238.393C1884.28 239.846 1886.65 240.573 1889.71 240.573C1894.5 240.573 1898.26 239.258 1900.98 236.63C1903.74 233.97 1905.11 230.29 1905.11 225.59V220.998L1897.41 221.322C1891.29 221.539 1886.87 222.497 1884.15 224.198C1881.45 225.868 1880.11 228.481 1880.11 232.038ZM1936.98 195.16H1951.73V201.144H1936.98V231.063C1936.98 234.094 1937.69 236.444 1939.11 238.114C1940.57 239.753 1942.55 240.573 1945.05 240.573C1947.56 240.573 1949.91 240.264 1952.1 239.645V245.583C1951.36 245.954 1950.15 246.263 1948.48 246.51C1946.81 246.789 1945.33 246.928 1944.03 246.928C1934.2 246.928 1929.28 241.748 1929.28 231.388V201.144H1922V197.433L1929.28 194.232L1932.53 183.378H1936.98V195.16ZM1961.66 181.383C1961.66 179.682 1962.07 178.415 1962.91 177.58C1963.74 176.714 1964.83 176.281 1966.16 176.281C1967.49 176.281 1968.58 176.714 1969.45 177.58C1970.32 178.445 1970.75 179.713 1970.75 181.383C1970.75 183.053 1970.32 184.337 1969.45 185.233C1968.58 186.099 1967.49 186.532 1966.16 186.532C1964.83 186.532 1963.74 186.099 1962.91 185.233C1962.07 184.337 1961.66 183.053 1961.66 181.383ZM1970.01 246H1962.31V195.16H1970.01V246ZM1983.46 220.534C1983.46 212.246 1985.52 205.798 1989.63 201.19C1993.77 196.552 1999.46 194.232 2006.7 194.232C2013.97 194.232 2019.67 196.598 2023.82 201.33C2028.05 206.03 2030.17 212.478 2030.17 220.673C2030.17 228.868 2028.08 235.3 2023.91 239.97C2019.73 244.608 2013.97 246.928 2006.61 246.928C2006.48 246.928 2006.36 246.928 2006.23 246.928C1999.52 246.928 1994.05 244.547 1989.81 239.784C1985.58 235.022 1983.46 228.821 1983.46 221.183C1983.46 220.967 1983.46 220.75 1983.46 220.534ZM2006.7 200.819C1996.52 200.819 1991.44 207.391 1991.44 220.534C1991.44 227.028 1992.74 231.976 1995.33 235.377C1997.96 238.779 2001.78 240.48 2006.79 240.48C2011.83 240.48 2015.65 238.795 2018.25 235.424C2020.88 232.022 2022.19 227.074 2022.19 220.58C2022.19 214.086 2020.88 209.169 2018.25 205.829C2015.65 202.489 2011.8 200.819 2006.7 200.819ZM2067.79 194.232C2073.97 194.232 2078.6 195.732 2081.66 198.732C2084.72 201.732 2086.25 206.432 2086.25 212.833V246H2078.55V213.112C2078.55 208.937 2077.59 205.845 2075.68 203.834C2073.79 201.824 2070.85 200.819 2066.86 200.819C2061.51 200.819 2057.6 202.257 2055.13 205.133C2052.68 208.009 2051.46 212.741 2051.46 219.328V246H2043.76V195.16H2050.02L2051.28 202.118H2051.65C2053.22 199.613 2055.42 197.681 2058.23 196.32C2061.08 194.928 2064.26 194.232 2067.79 194.232Z" fill="#1A2737"/>
  <path d="M397.224 481.732C389.313 481.732 383.222 479.34 378.95 474.555C374.677 469.77 372.541 462.97 372.541 454.157C372.541 454.035 372.541 453.913 372.541 453.791C372.541 448.468 373.566 443.744 375.617 439.618C377.692 435.492 380.671 432.306 384.553 430.06C388.459 427.814 392.939 426.691 397.993 426.691C398.115 426.691 398.225 426.691 398.322 426.691C403.913 426.691 408.82 427.716 413.044 429.767L410.407 435.114C406.33 433.209 402.277 432.257 398.249 432.257C392.365 432.257 387.714 434.223 384.296 438.153C380.903 442.06 379.206 447.467 379.206 454.376C379.206 461.261 380.842 466.632 384.113 470.49C387.409 474.298 392.097 476.203 398.176 476.203C401.936 476.203 406.196 475.531 410.957 474.188V479.645C407.148 481.037 402.57 481.732 397.224 481.732ZM423.261 443.646C427.46 441.352 431.977 440.204 436.811 440.204C441.645 440.204 445.197 441.278 447.468 443.427C449.763 445.551 450.91 448.944 450.91 453.607V481H446.442L445.234 475.287H444.941C442.939 477.802 440.937 479.511 438.935 480.414C436.958 481.293 434.479 481.732 431.501 481.732C427.521 481.732 424.396 480.707 422.126 478.656C419.855 476.581 418.72 473.664 418.72 469.904C418.72 461.823 425.214 457.575 438.203 457.16L445.014 456.94V454.45C445.014 451.276 444.331 448.957 442.963 447.492C441.621 446.002 439.35 445.258 436.152 445.258C432.954 445.258 429.279 446.271 425.129 448.297L423.261 443.646ZM425.129 469.977C425.129 472.15 425.788 473.822 427.106 474.994C428.425 476.142 430.292 476.715 432.709 476.715C436.494 476.715 439.46 475.678 441.608 473.603C443.781 471.503 444.868 468.598 444.868 464.887V461.261L438.789 461.518C433.955 461.688 430.463 462.445 428.315 463.788C426.191 465.106 425.129 467.169 425.129 469.977ZM470.026 440.863H481.672V445.587H470.026V469.208C470.026 471.601 470.588 473.456 471.711 474.774C472.858 476.068 474.421 476.715 476.398 476.715C478.376 476.715 480.231 476.471 481.965 475.983V480.67C481.379 480.963 480.427 481.208 479.108 481.403C477.79 481.623 476.618 481.732 475.593 481.732C467.829 481.732 463.947 477.643 463.947 469.464V445.587H458.198V442.658L463.947 440.131L466.511 431.562H470.026V440.863ZM491.523 443.646C495.722 441.352 500.239 440.204 505.073 440.204C509.907 440.204 513.459 441.278 515.729 443.427C518.024 445.551 519.172 448.944 519.172 453.607V481H514.704L513.496 475.287H513.203C511.201 477.802 509.199 479.511 507.197 480.414C505.219 481.293 502.741 481.732 499.763 481.732C495.783 481.732 492.658 480.707 490.388 478.656C488.117 476.581 486.982 473.664 486.982 469.904C486.982 461.823 493.476 457.575 506.464 457.16L513.276 456.94V454.45C513.276 451.276 512.592 448.957 511.225 447.492C509.882 446.002 507.612 445.258 504.414 445.258C501.215 445.258 497.541 446.271 493.391 448.297L491.523 443.646ZM493.391 469.977C493.391 472.15 494.05 473.822 495.368 474.994C496.687 476.142 498.554 476.715 500.971 476.715C504.755 476.715 507.722 475.678 509.87 473.603C512.043 471.503 513.129 468.598 513.129 464.887V461.261L507.05 461.518C502.216 461.688 498.725 462.445 496.577 463.788C494.453 465.106 493.391 467.169 493.391 469.977ZM537.849 481H531.77V424.018H537.849V481ZM550.373 499.018C548.566 499.018 546.735 498.81 544.88 498.395V493.524C546.247 493.817 547.749 493.964 549.384 493.964C553.559 493.964 556.538 491.62 558.32 486.933L560.554 481.22L544.367 440.863H550.886L559.675 463.751C561.555 468.83 562.751 472.602 563.264 475.067H563.557C563.898 473.822 564.509 471.869 565.388 469.208C566.267 466.522 569.636 457.074 575.495 440.863H582.014L564.765 486.566C563.007 491.132 561.005 494.33 558.759 496.161C556.489 498.065 553.693 499.018 550.373 499.018ZM598.676 476.715C605.268 476.715 608.564 474.665 608.564 470.563C608.564 469 607.88 467.67 606.513 466.571C605.17 465.448 602.534 464.13 598.603 462.616C594.843 461.225 592.17 460.004 590.583 458.954C589.021 457.904 587.861 456.732 587.104 455.438C586.347 454.145 585.969 452.57 585.969 450.714C585.969 447.467 587.299 444.892 589.96 442.987C592.622 441.083 596.186 440.131 600.654 440.131C605.122 440.131 609.431 441.01 613.581 442.768L611.42 447.711C607.417 446.076 603.876 445.258 600.8 445.258C597.749 445.258 595.478 445.697 593.989 446.576C592.5 447.455 591.755 448.7 591.755 450.312C591.755 451.386 592.023 452.301 592.561 453.058C593.098 453.815 593.977 454.535 595.197 455.219C596.418 455.902 598.774 456.891 602.265 458.185C607.026 459.918 610.236 461.664 611.896 463.422C613.581 465.18 614.423 467.389 614.423 470.05C614.423 473.786 613.02 476.667 610.212 478.693C607.429 480.719 603.449 481.732 598.273 481.732C593.122 481.732 589.057 480.89 586.079 479.206V473.566C590.229 475.666 594.428 476.715 598.676 476.715ZM630.793 440.863H642.438V445.587H630.793V469.208C630.793 471.601 631.354 473.456 632.478 474.774C633.625 476.068 635.188 476.715 637.165 476.715C639.143 476.715 640.998 476.471 642.731 475.983V480.67C642.146 480.963 641.193 481.208 639.875 481.403C638.557 481.623 637.385 481.732 636.359 481.732C628.596 481.732 624.714 477.643 624.714 469.464V445.587H618.964V442.658L624.714 440.131L627.277 431.562H630.793V440.863Z" fill="#1A2737"/>
  <path d="M1280.74 103.46H1297.55C1306.29 103.46 1313.07 105.767 1317.91 110.381C1322.74 114.996 1325.16 121.441 1325.16 129.717C1325.16 138.531 1322.65 145.281 1317.62 149.969C1312.61 154.656 1305.37 157 1295.9 157H1280.74V103.46ZM1292.09 112.762V147.625H1296.96C1307.9 147.625 1313.37 141.753 1313.37 130.01C1313.37 118.511 1308.29 112.762 1298.13 112.762H1292.09ZM1368.3 154.839C1364.54 156.768 1359.74 157.732 1353.91 157.732C1347.32 157.732 1342.16 155.914 1338.45 152.276C1334.74 148.638 1332.89 143.438 1332.89 136.675C1332.89 129.913 1334.6 124.676 1338.01 120.965C1341.43 117.181 1346.11 115.289 1352.04 115.289C1357.97 115.289 1362.54 116.937 1365.74 120.232C1368.98 123.504 1370.61 128.057 1370.61 133.892V139.312H1344.2C1344.32 142.51 1345.26 145 1347.02 146.783C1348.8 148.541 1351.27 149.419 1354.42 149.419C1359.06 149.419 1363.69 148.345 1368.3 146.197V154.839ZM1360.13 131.878C1360.08 129.144 1359.36 127.02 1357.97 125.506C1356.6 123.992 1354.74 123.235 1352.37 123.235C1350 123.235 1348.13 123.98 1346.77 125.469C1345.42 126.958 1344.65 129.095 1344.46 131.878H1360.13ZM1415.47 157H1406.9L1404.74 151.69H1404.26C1401.75 155.718 1397.88 157.732 1392.65 157.732C1387.82 157.732 1384.03 155.877 1381.3 152.166C1378.57 148.431 1377.2 143.23 1377.2 136.565C1377.2 129.876 1378.59 124.664 1381.37 120.928C1384.18 117.168 1388.1 115.289 1393.13 115.289C1398.16 115.289 1402.03 117.303 1404.74 121.331H1405.1C1404.54 118.182 1404.26 115.447 1404.26 113.128V100.018H1415.47V157ZM1405.03 136.675C1405.03 132.305 1404.35 129.168 1402.98 127.264C1401.61 125.335 1399.42 124.371 1396.39 124.371C1393.87 124.371 1391.93 125.433 1390.56 127.557C1389.2 129.681 1388.51 132.745 1388.51 136.749C1388.51 140.728 1389.2 143.743 1390.56 145.794C1391.96 147.82 1394.02 148.833 1396.75 148.833C1399.49 148.833 1401.53 148.016 1402.87 146.38C1404.21 144.72 1404.93 141.888 1405.03 137.884V136.675ZM1426.67 105.511C1426.67 101.849 1428.7 100.018 1432.75 100.018C1436.81 100.018 1438.83 101.836 1438.83 105.474C1438.83 107.232 1438.32 108.587 1437.29 109.539C1436.27 110.491 1434.75 110.967 1432.75 110.967C1428.7 110.967 1426.67 109.148 1426.67 105.511ZM1438.32 157H1427.15V116.058H1438.32V157ZM1466.7 157.732C1453.96 157.732 1447.58 150.738 1447.58 136.749C1447.58 129.815 1449.32 124.505 1452.78 120.818C1456.25 117.132 1461.22 115.289 1467.69 115.289C1472.45 115.289 1476.69 116.216 1480.4 118.072L1477.14 126.714C1473.18 125.103 1470.03 124.297 1467.69 124.297C1461.88 124.297 1458.97 128.362 1458.97 136.492C1458.97 144.622 1461.88 148.687 1467.69 148.687C1471.79 148.687 1475.61 147.503 1479.15 145.135V154.693C1477.25 155.914 1475.42 156.707 1473.66 157.073C1471.83 157.513 1469.51 157.732 1466.7 157.732ZM1489.77 118.914C1494.51 116.448 1499.7 115.215 1505.34 115.215C1510.98 115.215 1515.24 116.424 1518.12 118.841C1521.02 121.258 1522.47 124.883 1522.47 129.717V157H1514.67L1512.51 151.434H1512.22C1510.34 153.826 1508.41 155.474 1506.43 156.377C1504.46 157.281 1501.86 157.732 1498.63 157.732C1494.73 157.732 1491.63 156.609 1489.33 154.363C1487.09 152.117 1485.96 148.882 1485.96 144.659C1485.96 140.435 1487.46 137.286 1490.47 135.21C1493.47 133.111 1498.07 131.951 1504.27 131.731L1511.38 131.512V129.717C1511.38 125.567 1509.25 123.492 1505.01 123.492C1501.73 123.492 1497.89 124.48 1493.47 126.458L1489.77 118.914ZM1497.43 144.842C1497.43 147.991 1499.23 149.566 1502.85 149.566C1505.46 149.566 1507.53 148.821 1509.07 147.332C1510.61 145.843 1511.38 143.865 1511.38 141.399V138.03L1507.06 138.177C1503.81 138.274 1501.39 138.86 1499.81 139.935C1498.22 141.009 1497.43 142.645 1497.43 144.842ZM1546.39 116.058H1557.85V124.444H1546.39V144.183C1546.39 145.721 1546.81 146.88 1547.67 147.662C1548.55 148.443 1549.84 148.833 1551.55 148.833C1553.26 148.833 1555.51 148.406 1558.29 147.552V155.865C1555.51 157.11 1551.99 157.732 1547.74 157.732C1543.52 157.732 1540.37 156.622 1538.29 154.4C1536.24 152.154 1535.22 148.748 1535.22 144.183V124.444H1529.87V119.72L1536.02 115.984L1539.25 107.342H1546.39V116.058ZM1599.52 154.839C1595.77 156.768 1590.97 157.732 1585.13 157.732C1578.54 157.732 1573.39 155.914 1569.68 152.276C1565.97 148.638 1564.11 143.438 1564.11 136.675C1564.11 129.913 1565.82 124.676 1569.24 120.965C1572.66 117.181 1577.33 115.289 1583.27 115.289C1589.2 115.289 1593.76 116.937 1596.96 120.232C1600.21 123.504 1601.83 128.057 1601.83 133.892V139.312H1575.43C1575.55 142.51 1576.49 145 1578.25 146.783C1580.03 148.541 1582.5 149.419 1585.65 149.419C1590.28 149.419 1594.91 148.345 1599.52 146.197V154.839ZM1591.36 131.878C1591.31 129.144 1590.59 127.02 1589.2 125.506C1587.83 123.992 1585.96 123.235 1583.59 123.235C1581.23 123.235 1579.36 123.98 1577.99 125.469C1576.65 126.958 1575.88 129.095 1575.68 131.878H1591.36ZM1646.69 157H1638.12L1635.96 151.69H1635.49C1632.97 155.718 1629.1 157.732 1623.88 157.732C1619.04 157.732 1615.26 155.877 1612.53 152.166C1609.79 148.431 1608.42 143.23 1608.42 136.565C1608.42 129.876 1609.82 124.664 1612.6 120.928C1615.41 117.168 1619.32 115.289 1624.35 115.289C1629.38 115.289 1633.25 117.303 1635.96 121.331H1636.33C1635.77 118.182 1635.49 115.447 1635.49 113.128V100.018H1646.69V157ZM1636.26 136.675C1636.26 132.305 1635.57 129.168 1634.21 127.264C1632.84 125.335 1630.64 124.371 1627.61 124.371C1625.1 124.371 1623.16 125.433 1621.79 127.557C1620.42 129.681 1619.74 132.745 1619.74 136.749C1619.74 140.728 1620.42 143.743 1621.79 145.794C1623.18 147.82 1625.25 148.833 1627.98 148.833C1630.71 148.833 1632.75 148.016 1634.1 146.38C1635.44 144.72 1636.16 141.888 1636.26 137.884V136.675Z" fill="#1A2737"/>
  <path d="M834.086 302.318C820.068 302.318 809.345 298.078 801.918 289.596C794.492 281.115 790.778 268.898 790.778 252.946C790.778 252.726 790.778 252.506 790.778 252.287C790.778 242.619 792.602 234.049 796.25 226.579C799.897 219.064 805.104 213.307 811.872 209.308C818.64 205.265 826.396 203.244 835.141 203.244C835.449 203.244 835.734 203.244 835.998 203.244C845.446 203.244 854.851 205.507 864.211 210.033L857.619 226.645C848.698 222.382 841.491 220.25 835.998 220.25C828.308 220.25 822.353 223.151 818.134 228.952C813.916 234.708 811.806 242.75 811.806 253.078C811.806 274.567 819.87 285.312 835.998 285.312C842.722 285.312 850.917 283.62 860.585 280.236V297.375C852.675 300.67 843.842 302.318 834.086 302.318ZM911.606 225.919C918.374 225.919 924.416 227.458 929.733 230.534C935.095 233.566 939.226 237.96 942.126 243.717C945.07 249.43 946.542 255.978 946.542 263.361C946.542 263.581 946.542 263.8 946.542 264.02C946.542 276.017 943.378 285.399 937.05 292.167C930.722 298.935 921.911 302.318 910.617 302.318C910.441 302.318 910.244 302.318 910.024 302.318C903.256 302.318 897.192 300.78 891.831 297.704C886.513 294.584 882.382 290.146 879.438 284.389C876.538 278.632 875.087 272.062 875.087 264.679C875.087 264.459 875.087 264.24 875.087 264.02C875.087 251.979 878.229 242.641 884.514 236.005C890.798 229.281 899.631 225.919 911.013 225.919C911.188 225.919 911.386 225.919 911.606 225.919ZM922.351 247.541C919.934 243.937 916.066 242.135 910.749 242.135C905.432 242.135 901.564 243.915 899.147 247.475C896.774 251.034 895.588 256.549 895.588 264.02C895.588 271.447 896.796 277.006 899.213 280.697C901.674 284.345 905.542 286.168 910.815 286.168C916.132 286.168 919.978 284.345 922.351 280.697C924.768 277.05 925.976 271.513 925.976 264.086C925.976 256.615 924.768 251.1 922.351 247.541ZM1049.77 225.919C1058.25 225.919 1064.6 228.095 1068.82 232.445C1073.04 236.796 1075.15 243.629 1075.15 252.946V301H1054.98V257.956C1054.98 252.594 1054.08 248.595 1052.27 245.958C1050.47 243.322 1047.68 242.003 1043.9 242.003C1038.94 242.003 1035.25 243.783 1032.83 247.343C1030.41 250.902 1029.2 256.461 1029.2 264.02V301H1009.1V257.956C1009.1 252.594 1008.2 248.595 1006.4 245.958C1004.59 243.322 1001.8 242.003 998.024 242.003C992.883 242.003 989.147 243.893 986.818 247.672C984.489 251.452 983.325 257.67 983.325 266.327V301H963.22V227.304H978.579L981.281 236.796H982.402C984.379 233.368 987.236 230.709 990.971 228.82C994.707 226.886 998.991 225.919 1003.83 225.919C1014.9 225.919 1022.37 229.545 1026.24 236.796H1028.02C1029.99 233.368 1032.9 230.709 1036.72 228.82C1040.54 226.886 1044.89 225.919 1049.77 225.919ZM1182.4 225.919C1190.88 225.919 1197.23 228.095 1201.45 232.445C1205.67 236.796 1207.78 243.629 1207.78 252.946V301H1187.6V257.956C1187.6 252.594 1186.7 248.595 1184.9 245.958C1183.1 243.322 1180.31 242.003 1176.53 242.003C1171.56 242.003 1167.87 243.783 1165.46 247.343C1163.04 250.902 1161.83 256.461 1161.83 264.02V301H1141.73V257.956C1141.73 252.594 1140.82 248.595 1139.02 245.958C1137.22 243.322 1134.43 242.003 1130.65 242.003C1125.51 242.003 1121.77 243.893 1119.45 247.672C1117.12 251.452 1115.95 257.67 1115.95 266.327V301H1095.85V227.304H1111.21L1113.91 236.796H1115.03C1117.01 233.368 1119.86 230.709 1123.6 228.82C1127.33 226.886 1131.62 225.919 1136.45 225.919C1147.53 225.919 1155 229.545 1158.86 236.796H1160.64C1162.62 233.368 1165.52 230.709 1169.35 228.82C1173.17 226.886 1177.52 225.919 1182.4 225.919ZM1296.11 301H1280.68L1277.98 291.574H1276.92C1274.77 295.001 1271.72 297.66 1267.76 299.55C1263.81 301.396 1259.3 302.318 1254.25 302.318C1245.63 302.318 1239.11 300.011 1234.67 295.397C1230.28 290.783 1228.08 284.103 1228.08 275.358V227.304H1248.18V270.348C1248.18 275.709 1249.13 279.708 1251.02 282.345C1252.95 284.982 1255.96 286.3 1260.05 286.3C1265.67 286.3 1269.74 284.433 1272.24 280.697C1274.75 276.962 1276 270.722 1276 261.977V227.304H1296.11V301ZM1359.06 225.919C1367.58 225.919 1374.06 228.249 1378.5 232.907C1382.99 237.521 1385.23 244.201 1385.23 252.946V301H1365.12V257.956C1365.12 252.594 1364.15 248.595 1362.22 245.958C1360.33 243.322 1357.34 242.003 1353.26 242.003C1347.63 242.003 1343.57 243.893 1341.06 247.672C1338.56 251.452 1337.3 257.67 1337.3 266.327V301H1317.2V227.304H1332.56L1335.26 236.796H1336.38C1338.58 233.236 1341.63 230.534 1345.54 228.688C1349.5 226.842 1354 225.919 1359.06 225.919ZM1405.07 208.319C1405.07 201.728 1408.72 198.432 1416.01 198.432C1423.31 198.432 1426.95 201.706 1426.95 208.253C1426.95 211.417 1426.03 213.856 1424.18 215.57C1422.34 217.284 1419.61 218.141 1416.01 218.141C1408.72 218.141 1405.07 214.867 1405.07 208.319ZM1426.03 301H1405.92V227.304H1426.03V301ZM1469.47 227.304H1490.1V242.399H1469.47V277.929C1469.47 280.697 1470.24 282.785 1471.78 284.191C1473.36 285.597 1475.69 286.3 1478.76 286.3C1481.84 286.3 1485.88 285.531 1490.89 283.993V298.957C1485.88 301.198 1479.56 302.318 1471.91 302.318C1464.31 302.318 1458.64 300.319 1454.9 296.32C1451.21 292.277 1449.36 286.146 1449.36 277.929V242.399H1439.74V233.896L1450.81 227.172L1456.62 211.615H1469.47V227.304ZM1510.14 333.432C1506.8 333.432 1503.4 333.058 1499.92 332.311V316.359C1502.25 316.93 1504.89 317.216 1507.83 317.216C1515.26 317.216 1520.45 312.843 1523.39 304.098L1524.58 300.473L1495.31 227.304H1517.33L1531.23 268.766C1532.38 272.326 1533.19 276.588 1533.67 281.554H1534.07C1534.51 277.248 1535.45 272.985 1536.9 268.766L1550.55 227.304H1572.1L1540.92 310.426C1538.07 318.029 1534 323.764 1528.73 327.631C1523.5 331.498 1517.3 333.432 1510.14 333.432Z" fill="#E1701D"/>
  <path d="M1676.52 381.123C1664.58 381.123 1655.44 377.511 1649.12 370.286C1642.79 363.061 1639.63 352.654 1639.63 339.065C1639.63 338.878 1639.63 338.691 1639.63 338.503C1639.63 330.268 1641.18 322.968 1644.29 316.604C1647.39 310.203 1651.83 305.299 1657.59 301.892C1663.36 298.448 1669.97 296.726 1677.42 296.726C1677.68 296.726 1677.92 296.726 1678.15 296.726C1686.19 296.726 1694.21 298.654 1702.18 302.51L1696.56 316.66C1688.97 313.029 1682.83 311.213 1678.15 311.213C1671.6 311.213 1666.52 313.684 1662.93 318.625C1659.34 323.529 1657.54 330.38 1657.54 339.177C1657.54 357.483 1664.41 366.636 1678.15 366.636C1683.87 366.636 1690.86 365.194 1699.09 362.312V376.912C1692.35 379.719 1684.83 381.123 1676.52 381.123ZM1714.59 301.05C1714.59 295.435 1717.7 292.627 1723.91 292.627C1730.12 292.627 1733.23 295.416 1733.23 300.994C1733.23 303.689 1732.45 305.767 1730.87 307.227C1729.3 308.687 1726.98 309.417 1723.91 309.417C1717.7 309.417 1714.59 306.628 1714.59 301.05ZM1732.45 380H1715.32V317.222H1732.45V380ZM1782.98 380H1765.41L1741.49 317.222H1759.4L1771.53 352.991C1772.88 357.558 1773.72 361.844 1774.05 365.85H1774.39C1774.54 362.293 1775.38 358.007 1776.92 352.991L1788.99 317.222H1806.9L1782.98 380ZM1815.21 301.05C1815.21 295.435 1818.32 292.627 1824.54 292.627C1830.75 292.627 1833.86 295.416 1833.86 300.994C1833.86 303.689 1833.07 305.767 1831.5 307.227C1829.93 308.687 1827.61 309.417 1824.54 309.417C1818.32 309.417 1815.21 306.628 1815.21 301.05ZM1833.07 380H1815.94V317.222H1833.07V380ZM1876.59 381.123C1857.05 381.123 1847.28 370.398 1847.28 348.948C1847.28 338.316 1849.94 330.174 1855.25 324.521C1860.57 318.869 1868.18 316.042 1878.1 316.042C1885.4 316.042 1891.9 317.465 1897.59 320.31L1892.59 333.562C1886.53 331.091 1881.7 329.856 1878.1 329.856C1869.2 329.856 1864.74 336.089 1864.74 348.555C1864.74 361.021 1869.2 367.253 1878.1 367.253C1884.39 367.253 1890.25 365.438 1895.68 361.807V376.462C1892.76 378.334 1889.95 379.551 1887.26 380.112C1884.45 380.786 1880.89 381.123 1876.59 381.123ZM1958.91 380H1941.5V297.905H1958.91V380ZM2013.88 316.042C2021.14 316.042 2026.67 318.027 2030.45 321.995C2034.26 325.925 2036.17 331.615 2036.17 339.065V380H2019.05V343.333C2019.05 338.765 2018.22 335.359 2016.58 333.113C2014.97 330.867 2012.42 329.744 2008.94 329.744C2004.15 329.744 2000.69 331.353 1998.55 334.573C1996.42 337.792 1995.35 343.089 1995.35 350.464V380H1978.22V317.222H1991.31L1993.61 325.308H1994.56C1996.44 322.275 1999.04 319.973 2002.37 318.401C2005.74 316.829 2009.58 316.042 2013.88 316.042ZM2079.3 381.123C2059.76 381.123 2049.99 370.398 2049.99 348.948C2049.99 338.316 2052.65 330.174 2057.96 324.521C2063.28 318.869 2070.89 316.042 2080.81 316.042C2088.11 316.042 2094.61 317.465 2100.3 320.31L2095.3 333.562C2089.24 331.091 2084.41 329.856 2080.81 329.856C2071.91 329.856 2067.45 336.089 2067.45 348.555C2067.45 361.021 2071.91 367.253 2080.81 367.253C2087.1 367.253 2092.96 365.438 2098.39 361.807V376.462C2095.47 378.334 2092.66 379.551 2089.97 380.112C2087.16 380.786 2083.6 381.123 2079.3 381.123ZM2130.12 380H2112.99V292.627H2130.12V380ZM2205.75 380H2192.61L2190.31 371.97H2189.41C2187.58 374.89 2184.98 377.155 2181.61 378.765C2178.24 380.337 2174.4 381.123 2170.1 381.123C2162.76 381.123 2157.2 379.158 2153.42 375.227C2149.68 371.296 2147.8 365.606 2147.8 358.157V317.222H2164.93V353.889C2164.93 358.456 2165.74 361.863 2167.35 364.109C2168.99 366.355 2171.56 367.478 2175.04 367.478C2179.83 367.478 2183.29 365.887 2185.43 362.705C2187.56 359.523 2188.63 354.207 2188.63 346.758V317.222H2205.75V380ZM2241.3 368.601C2247.51 368.601 2250.62 366.804 2250.62 363.21C2250.62 361.376 2249.8 359.916 2248.15 358.831C2246.54 357.745 2242.83 355.911 2237.03 353.328C2232.2 351.306 2228.65 349.434 2226.36 347.712C2224.12 345.99 2222.47 344.025 2221.42 341.816C2220.41 339.57 2219.9 336.819 2219.9 333.562C2219.9 327.984 2222.06 323.679 2226.36 320.647C2230.7 317.577 2236.77 316.042 2244.56 316.042C2252.34 316.042 2259.77 317.69 2266.85 320.984L2261.68 333.337C2258.05 331.803 2254.92 330.661 2252.3 329.912C2249.72 329.126 2247.12 328.733 2244.5 328.733C2239.45 328.733 2236.92 330.099 2236.92 332.832C2236.92 334.367 2237.74 335.715 2239.39 336.875C2241.04 337.998 2244.44 339.589 2249.61 341.648C2254.81 343.707 2258.56 345.616 2260.84 347.375C2265.29 350.745 2267.52 355.536 2267.52 361.75C2267.52 367.965 2265.28 372.756 2260.78 376.125C2256.29 379.457 2249.8 381.123 2241.3 381.123C2232.8 381.123 2225.69 379.906 2219.96 377.473V363.323C2223.18 364.82 2226.77 366.074 2230.74 367.085C2234.75 368.096 2238.27 368.601 2241.3 368.601ZM2280.16 301.05C2280.16 295.435 2283.26 292.627 2289.48 292.627C2295.69 292.627 2298.8 295.416 2298.8 300.994C2298.8 303.689 2298.01 305.767 2296.44 307.227C2294.87 308.687 2292.55 309.417 2289.48 309.417C2283.26 309.417 2280.16 306.628 2280.16 301.05ZM2298.01 380H2280.89V317.222H2298.01V380ZM2343.27 316.042C2349.04 316.042 2354.18 317.353 2358.71 319.973C2363.28 322.556 2366.8 326.3 2369.27 331.204C2371.78 336.07 2373.03 341.648 2373.03 347.937C2373.03 348.124 2373.03 348.311 2373.03 348.499C2373.03 358.718 2370.34 366.711 2364.95 372.476C2359.56 378.241 2352.05 381.123 2342.43 381.123C2342.28 381.123 2342.11 381.123 2341.92 381.123C2336.16 381.123 2330.99 379.813 2326.43 377.192C2321.9 374.535 2318.38 370.754 2315.87 365.85C2313.4 360.946 2312.16 355.349 2312.16 349.06C2312.16 348.873 2312.16 348.686 2312.16 348.499C2312.16 338.241 2314.84 330.286 2320.19 324.634C2325.55 318.906 2333.07 316.042 2342.77 316.042C2342.92 316.042 2343.08 316.042 2343.27 316.042ZM2352.42 334.46C2350.36 331.391 2347.07 329.856 2342.54 329.856C2338.01 329.856 2334.72 331.372 2332.66 334.404C2330.64 337.437 2329.63 342.135 2329.63 348.499C2329.63 354.825 2330.66 359.561 2332.71 362.705C2334.81 365.812 2338.1 367.366 2342.6 367.366C2347.13 367.366 2350.4 365.812 2352.42 362.705C2354.48 359.598 2355.51 354.881 2355.51 348.555C2355.51 342.191 2354.48 337.493 2352.42 334.46ZM2422.9 316.042C2430.16 316.042 2435.68 318.027 2439.46 321.995C2443.28 325.925 2445.19 331.615 2445.19 339.065V380H2428.06V343.333C2428.06 338.765 2427.24 335.359 2425.59 333.113C2423.98 330.867 2421.44 329.744 2417.95 329.744C2413.16 329.744 2409.7 331.353 2407.57 334.573C2405.43 337.792 2404.36 343.089 2404.36 350.464V380H2387.24V317.222H2400.32L2402.62 325.308H2403.58C2405.45 322.275 2408.05 319.973 2411.38 318.401C2414.75 316.829 2418.59 316.042 2422.9 316.042Z" fill="#1A2737"/>
  <path d="M1751.8 68.9897H1734.84V117H1728.61V68.9897H1711.66V63.46H1751.8V68.9897ZM1756.7 96.895C1756.7 90.3521 1758.33 85.2617 1761.57 81.624C1764.85 77.9619 1769.34 76.1309 1775.05 76.1309C1780.79 76.1309 1785.29 77.9985 1788.56 81.7339C1791.91 85.4448 1793.58 90.5352 1793.58 97.0049C1793.58 103.475 1791.93 108.553 1788.64 112.239C1785.34 115.901 1780.79 117.732 1774.98 117.732C1774.88 117.732 1774.78 117.732 1774.68 117.732C1769.39 117.732 1765.06 115.853 1761.72 112.093C1758.38 108.333 1756.7 103.438 1756.7 97.4077C1756.7 97.2368 1756.7 97.0659 1756.7 96.895ZM1775.05 81.3311C1767.02 81.3311 1763 86.519 1763 96.895C1763 102.022 1764.03 105.928 1766.08 108.614C1768.15 111.299 1771.17 112.642 1775.12 112.642C1779.1 112.642 1782.12 111.312 1784.17 108.65C1786.24 105.965 1787.28 102.059 1787.28 96.9316C1787.28 91.8047 1786.24 87.9229 1784.17 85.2861C1782.12 82.6494 1779.08 81.3311 1775.05 81.3311ZM1816.03 110.628H1823.13C1827.48 110.628 1830.81 111.543 1833.13 113.375C1835.48 115.206 1836.65 117.867 1836.65 121.358C1836.65 125.801 1834.86 129.183 1831.3 131.502C1827.74 133.846 1822.54 135.018 1815.7 135.018C1810.45 135.018 1806.4 134.041 1803.54 132.088C1800.71 130.135 1799.29 127.376 1799.29 123.812C1799.29 121.37 1800.07 119.258 1801.64 117.476C1803.22 115.694 1805.42 114.485 1808.23 113.851C1807.15 113.362 1806.28 112.63 1805.59 111.653C1804.93 110.677 1804.6 109.517 1804.6 108.174C1804.6 106.807 1804.98 105.574 1805.74 104.476C1806.52 103.353 1807.77 102.278 1809.47 101.253C1807.42 100.423 1805.73 98.9702 1804.38 96.895C1803.09 94.8198 1802.44 92.4761 1802.44 89.8638C1802.44 85.4937 1803.76 82.1123 1806.4 79.7197C1809.03 77.3271 1812.77 76.1309 1817.6 76.1309C1819.65 76.1309 1821.55 76.375 1823.28 76.8633H1837.16V80.7451L1829.73 81.5874C1831.48 83.8091 1832.36 86.4824 1832.36 89.6074C1832.36 93.5381 1831.02 96.6753 1828.33 99.019C1825.65 101.363 1821.96 102.535 1817.27 102.535C1816.15 102.535 1815.03 102.437 1813.91 102.242C1811.32 103.584 1810.02 105.306 1810.02 107.405C1810.02 108.528 1810.49 109.346 1811.42 109.859C1812.34 110.372 1813.88 110.628 1816.03 110.628ZM1817.35 80.5986C1814.47 80.5986 1812.26 81.3677 1810.72 82.9058C1809.21 84.4438 1808.45 86.6655 1808.45 89.5708C1808.45 92.4517 1809.23 94.6245 1810.79 96.0894C1812.38 97.5298 1814.6 98.25 1817.46 98.25C1823.39 98.25 1826.36 95.3691 1826.36 89.6074C1826.36 83.6016 1823.35 80.5986 1817.35 80.5986ZM1821.19 116.084H1813.91C1811.12 116.084 1808.96 116.744 1807.42 118.062C1805.91 119.38 1805.15 121.199 1805.15 123.519C1805.15 128.084 1808.69 130.367 1815.77 130.367C1820.78 130.367 1824.53 129.622 1827.02 128.133C1829.53 126.644 1830.79 124.556 1830.79 121.871C1830.79 119.673 1830.12 118.16 1828.77 117.33C1827.43 116.5 1824.9 116.084 1821.19 116.084ZM1862.35 117.732C1856.42 117.732 1851.73 115.926 1848.29 112.312C1844.87 108.675 1843.17 103.633 1843.17 97.188C1843.17 90.7427 1844.75 85.6279 1847.93 81.8438C1851.12 78.0352 1855.32 76.1309 1860.52 76.1309C1865.75 76.1309 1869.81 77.8032 1872.72 81.1479C1875.65 84.395 1877.11 88.7407 1877.11 94.1851V98.0303H1849.46C1849.59 102.718 1850.77 106.294 1853.02 108.76C1855.26 111.202 1858.5 112.422 1862.72 112.422C1866.94 112.422 1871.16 111.519 1875.36 109.712V115.132C1873.23 116.06 1871.19 116.719 1869.24 117.11C1867.31 117.525 1865.02 117.732 1862.35 117.732ZM1870.59 93.0864C1870.59 89.2778 1869.74 86.3604 1868.03 84.334C1866.32 82.2832 1863.87 81.2578 1860.67 81.2578C1857.5 81.2578 1854.95 82.2954 1853.02 84.3706C1851.09 86.4458 1849.95 89.3511 1849.61 93.0864H1870.59ZM1894.03 76.8633H1905.68V81.5874H1894.03V105.208C1894.03 107.601 1894.59 109.456 1895.72 110.774C1896.86 112.068 1898.43 112.715 1900.4 112.715C1902.38 112.715 1904.24 112.471 1905.97 111.983V116.67C1905.38 116.963 1904.43 117.208 1903.11 117.403C1901.8 117.623 1900.62 117.732 1899.6 117.732C1891.83 117.732 1887.95 113.643 1887.95 105.464V81.5874H1882.2V78.6577L1887.95 76.1309L1890.52 67.5615H1894.03V76.8633ZM1920.11 60.0176V77.2661C1920.11 79.2925 1920.01 81.0137 1919.81 82.4297H1920.18C1921.38 80.4766 1923.08 78.9507 1925.31 77.8521C1927.53 76.7534 1930.04 76.2041 1932.85 76.2041C1937.81 76.2041 1941.49 77.3882 1943.91 79.7563C1946.35 82.1245 1947.57 85.811 1947.57 90.8159V117H1941.49V91.0356C1941.49 87.7397 1940.74 85.2983 1939.22 83.7114C1937.73 82.1245 1935.41 81.3311 1932.26 81.3311C1927.99 81.3311 1924.89 82.4785 1922.96 84.7734C1921.06 87.0439 1920.11 90.7915 1920.11 96.0161V117H1914.03V60.0176H1920.11ZM1977.05 117.732C1971.12 117.732 1966.43 115.926 1962.99 112.312C1959.57 108.675 1957.86 103.633 1957.86 97.188C1957.86 90.7427 1959.45 85.6279 1962.62 81.8438C1965.82 78.0352 1970.02 76.1309 1975.22 76.1309C1980.45 76.1309 1984.51 77.8032 1987.42 81.1479C1990.35 84.395 1991.81 88.7407 1991.81 94.1851V98.0303H1964.16C1964.28 102.718 1965.47 106.294 1967.71 108.76C1969.96 111.202 1973.19 112.422 1977.42 112.422C1981.64 112.422 1985.85 111.519 1990.05 109.712V115.132C1987.93 116.06 1985.89 116.719 1983.94 117.11C1982.01 117.525 1979.71 117.732 1977.05 117.732ZM1985.29 93.0864C1985.29 89.2778 1984.44 86.3604 1982.73 84.334C1981.02 82.2832 1978.57 81.2578 1975.37 81.2578C1972.19 81.2578 1969.64 82.2954 1967.71 84.3706C1965.79 86.4458 1964.65 89.3511 1964.31 93.0864H1985.29ZM2020.52 76.1309C2022.28 76.1309 2023.88 76.2773 2025.32 76.5703L2024.48 82.21C2022.82 81.8438 2021.35 81.6606 2020.08 81.6606C2016.81 81.6606 2014.03 82.979 2011.73 85.6157C2009.44 88.228 2008.29 91.5117 2008.29 95.4668V117H2002.21V76.8633H2007.23L2007.92 84.2974H2008.22C2009.71 81.6606 2011.5 79.6465 2013.6 78.2549C2015.72 76.8389 2018.03 76.1309 2020.52 76.1309ZM2051.8 76.1309C2056.68 76.1309 2060.33 77.3149 2062.75 79.6831C2065.16 82.0513 2066.37 85.7622 2066.37 90.8159V117H2060.29V91.0356C2060.29 87.7397 2059.54 85.2983 2058.02 83.7114C2056.53 82.1245 2054.21 81.3311 2051.06 81.3311C2046.84 81.3311 2043.75 82.4663 2041.8 84.7368C2039.87 87.0073 2038.91 90.7427 2038.91 95.9429V117H2032.83V76.8633H2037.77L2038.76 82.3564H2039.05C2040.3 80.3789 2042.03 78.853 2044.25 77.7788C2046.5 76.6802 2049.01 76.1309 2051.8 76.1309ZM2095.85 117.732C2089.92 117.732 2085.23 115.926 2081.79 112.312C2078.37 108.675 2076.66 103.633 2076.66 97.188C2076.66 90.7427 2078.25 85.6279 2081.42 81.8438C2084.62 78.0352 2088.82 76.1309 2094.02 76.1309C2099.24 76.1309 2103.31 77.8032 2106.21 81.1479C2109.14 84.395 2110.61 88.7407 2110.61 94.1851V98.0303H2082.96C2083.08 102.718 2084.27 106.294 2086.51 108.76C2088.76 111.202 2091.99 112.422 2096.22 112.422C2100.44 112.422 2104.65 111.519 2108.85 109.712V115.132C2106.73 116.06 2104.69 116.719 2102.74 117.11C2100.81 117.525 2098.51 117.732 2095.85 117.732ZM2104.09 93.0864C2104.09 89.2778 2103.24 86.3604 2101.53 84.334C2099.82 82.2832 2097.36 81.2578 2094.17 81.2578C2090.99 81.2578 2088.44 82.2954 2086.51 84.3706C2084.58 86.4458 2083.45 89.3511 2083.11 93.0864H2104.09ZM2131.15 112.715C2137.75 112.715 2141.04 110.665 2141.04 106.563C2141.04 105 2140.36 103.67 2138.99 102.571C2137.65 101.448 2135.01 100.13 2131.08 98.6162C2127.32 97.2246 2124.65 96.0039 2123.06 94.9541C2121.5 93.9043 2120.34 92.7324 2119.58 91.4385C2118.82 90.1445 2118.45 88.5698 2118.45 86.7144C2118.45 83.4673 2119.78 80.8916 2122.44 78.9873C2125.1 77.083 2128.66 76.1309 2133.13 76.1309C2137.6 76.1309 2141.91 77.0098 2146.06 78.7676L2143.9 83.7114C2139.89 82.0757 2136.35 81.2578 2133.28 81.2578C2130.23 81.2578 2127.96 81.6973 2126.47 82.5762C2124.98 83.4551 2124.23 84.7002 2124.23 86.3115C2124.23 87.3857 2124.5 88.3013 2125.04 89.0581C2125.58 89.8149 2126.45 90.5352 2127.67 91.2188C2128.9 91.9023 2131.25 92.8911 2134.74 94.1851C2139.5 95.9185 2142.71 97.6641 2144.37 99.4219C2146.06 101.18 2146.9 103.389 2146.9 106.05C2146.9 109.786 2145.5 112.667 2142.69 114.693C2139.91 116.719 2135.93 117.732 2130.75 117.732C2125.6 117.732 2121.53 116.89 2118.56 115.206V109.566C2122.71 111.666 2126.91 112.715 2131.15 112.715ZM2166.9 112.715C2173.49 112.715 2176.78 110.665 2176.78 106.563C2176.78 105 2176.1 103.67 2174.73 102.571C2173.39 101.448 2170.75 100.13 2166.82 98.6162C2163.06 97.2246 2160.39 96.0039 2158.8 94.9541C2157.24 93.9043 2156.08 92.7324 2155.32 91.4385C2154.57 90.1445 2154.19 88.5698 2154.19 86.7144C2154.19 83.4673 2155.52 80.8916 2158.18 78.9873C2160.84 77.083 2164.41 76.1309 2168.87 76.1309C2173.34 76.1309 2177.65 77.0098 2181.8 78.7676L2179.64 83.7114C2175.64 82.0757 2172.1 81.2578 2169.02 81.2578C2165.97 81.2578 2163.7 81.6973 2162.21 82.5762C2160.72 83.4551 2159.97 84.7002 2159.97 86.3115C2159.97 87.3857 2160.24 88.3013 2160.78 89.0581C2161.32 89.8149 2162.2 90.5352 2163.42 91.2188C2164.64 91.9023 2166.99 92.8911 2170.48 94.1851C2175.25 95.9185 2178.46 97.6641 2180.12 99.4219C2181.8 101.18 2182.64 103.389 2182.64 106.05C2182.64 109.786 2181.24 112.667 2178.43 114.693C2175.65 116.719 2171.67 117.732 2166.49 117.732C2161.34 117.732 2157.28 116.89 2154.3 115.206V109.566C2158.45 111.666 2162.65 112.715 2166.9 112.715Z" fill="#1A2737"/>
</svg>
